<?xml version="1.0" encoding="UTF-8" standalone="no"?>
<!-- Created with Inkscape (http://www.inkscape.org/) -->

<svg
   width="48"
   height="48"
   viewBox="0 0 12.7 12.7"
   version="1.1"
   id="svg1"
   xml:space="preserve"
   inkscape:version="1.3.2 (091e20ef0f, 2023-11-25)"
   sodipodi:docname="symbol-letters-color.svg"
   inkscape:export-filename="symbol-colored.png"
   inkscape:export-xdpi="96"
   inkscape:export-ydpi="96"
   xmlns:inkscape="http://www.inkscape.org/namespaces/inkscape"
   xmlns:sodipodi="http://sodipodi.sourceforge.net/DTD/sodipodi-0.dtd"
   xmlns="http://www.w3.org/2000/svg"
   xmlns:svg="http://www.w3.org/2000/svg"><sodipodi:namedview
     id="namedview1"
     pagecolor="#ffffff"
     bordercolor="#000000"
     borderopacity="0.25"
     inkscape:showpageshadow="2"
     inkscape:pageopacity="0.0"
     inkscape:pagecheckerboard="true"
     inkscape:deskcolor="#d1d1d1"
     inkscape:document-units="px"
     inkscape:zoom="14.644936"
     inkscape:cx="11.539825"
     inkscape:cy="21.816416"
     inkscape:window-width="1904"
     inkscape:window-height="971"
     inkscape:window-x="8"
     inkscape:window-y="64"
     inkscape:window-maximized="0"
     inkscape:current-layer="layer1" /><defs
     id="defs1" /><g
     inkscape:groupmode="layer"
     id="layer1"
     inkscape:label="Symbol"
     style="display:inline"><rect
       style="fill:#ebf2ff;fill-opacity:1;stroke:none;stroke-width:1.59442;stroke-opacity:1"
       id="rect1"
       width="12.7"
       height="12.7"
       x="1.110223e-16"
       y="1.110223e-16"
       rx="1.5875"
       ry="1.5875" /><g
       id="g99"
       transform="matrix(1.3507348,0,0,1.3507348,-2.2271662,-2.2271663)"
       style="display:inline;fill:#0d2859;fill-opacity:1"><path
         style="color:#000000;display:inline;fill:#0d2859;fill-opacity:1;-inkscape-stroke:none"
         d="M 5.3641684,2.6933694 5.2625672,3.800303 4.7270786,7.1211037 4.9025868,7.1406347 5.3338949,3.8198339 5.5545593,2.7129003 Z"
         id="path88"
         sodipodi:nodetypes="csccscc" /><path
         style="display:inline;fill:#0d2859;fill-opacity:1;stroke:none;stroke-width:0.132292;stroke-dasharray:none;stroke-opacity:1"
         d="m 3.0222077,5.4132605 c 0,0 -0.256796,-0.6552779 0.1805528,-1.0191957 C 3.6401091,4.0301471 4.761111,4.1879552 4.761111,4.1879552 l 1.9910228,0.0047 c 0,0 0.8968764,-0.048447 1.17525,-0.2274485 0.2783735,-0.1790018 0.2348174,-0.3782775 0.3891321,-0.3581392 0.1543145,0.020137 0.1473562,0.0277 0.1473562,0.0277 0,0 -0.03548,0.073652 -0.097855,0.2148589 -0.040383,0.091421 -0.06853,0.159813 -0.2432464,0.2761461 -0.1747186,0.116333 -0.1489779,0.07154 -0.1489779,0.07154 0,0 -0.095285,1.732706 -0.00893,2.5195319 0.08635,0.7868259 0.1665795,1.8083795 0.1665795,1.8083795 l -0.6712529,0.04884 c 0,0 -0.052584,-0.6781297 -0.04018,-1.9452829 0.012404,-1.2671531 -0.065272,-1.8250313 -0.065272,-1.8250313 l -2.7683266,0.075267 c 0,0 -0.3776346,-0.00545 -0.9674548,0.092614 C 3.1545877,5.1792241 3.0222077,5.41326 3.0222077,5.4132605 Z"
         id="path89"
         sodipodi:nodetypes="csccsscssccccscccc" /><path
         style="display:inline;fill:#0d2859;fill-opacity:1;stroke:none;stroke-width:0.132292;stroke-linecap:round;stroke-dasharray:none;stroke-opacity:1"
         d="m 7.7041741,4.9433785 c 0,0 0.9965652,-0.8331385 1.3814921,-0.9210527 0.2636346,-0.060212 0.2788325,-0.1820969 0.2788325,-0.1820969 0,0 -0.236127,-0.03118 -0.4837975,0.079739 C 8.627521,4.0333543 8.3170043,4.3615155 8.1767248,4.4538678 8.0364456,4.5462204 7.6727375,4.7836236 7.6727375,4.7836236 Z"
         id="path90"
         sodipodi:nodetypes="cscsscc" /><path
         style="display:inline;fill:#0d2859;fill-opacity:1;stroke:none;stroke-width:0.132292;stroke-linecap:round;stroke-dasharray:none;stroke-opacity:1"
         d="m 4.2089267,2.1781159 c 0,0 0.5658979,-0.2993452 1.1355544,-0.014672 0.569656,0.2846727 0.57786,0.4345534 0.57786,0.4345534 0,0 0.030847,-0.2725426 0.2025206,-0.3808982 0.1716733,-0.1083556 0.2776062,-0.081472 0.2776062,-0.081472 0,0 -0.2120096,0.1574423 -0.2602114,0.3081067 -0.048202,0.1506643 0.017793,0.5922578 0.107355,0.7855526 0.089562,0.1932948 1.0040189,3.2183214 1.0657853,3.4271517 0.061767,0.2088301 0.1610851,0.4865945 0.1610851,0.4865945 L 6.9307103,7.772751 c 0,0 -0.2109354,-0.8155663 -0.39516,-1.1773985 C 6.3513257,6.2335202 6.2135321,6.0704718 5.9660789,5.802833 5.718626,5.5351943 5.6269476,5.5150669 5.6269476,5.5150669 c 0,0 0.1339781,-0.263756 0.3398833,-0.2346309 0.2059053,0.029125 0.2478217,0.1202057 0.2478217,0.1202057 0,0 -0.3187626,-1.5090582 -0.598187,-1.9925575 C 5.337041,2.9245848 5.2543796,2.5834139 4.9998841,2.4248272 4.7453884,2.2662406 4.6756308,2.2021921 4.491384,2.1965796 4.3071374,2.190967 4.2089267,2.1781159 4.2089267,2.1781159 Z"
         id="path91" /><path
         style="display:inline;fill:#0d2859;fill-opacity:1;stroke:none;stroke-width:0.132292;stroke-linecap:round;stroke-dasharray:none;stroke-opacity:1"
         d="m 6.0613469,7.0326643 c 0,0 0.2355254,-0.049187 0.3112383,0.1603753 C 6.4482984,7.4026015 6.1980769,7.5470934 6.1650264,7.5610293 6.1319764,7.5749649 5.5772827,7.612037 4.9974106,7.4014731 4.4175387,7.1909089 4.1123636,7.3012701 3.9907362,7.3535218 3.8691091,7.4057739 3.4704103,7.5975965 3.3720777,7.9722336 c -0.098333,0.374637 0.079673,0.8255386 0.2614574,1.0558754 0.1817845,0.2303364 0.580207,0.6483186 0.8993398,0.761788 0.3191324,0.1134696 0.7898125,0.1267426 0.7898125,0.1267426 0,0 0.058477,0.1338384 0.1194078,0.1617354 0.3749642,0.171675 0.8207626,0.138766 1.2336055,-0.09408 C 7.0885438,9.7514396 7.141242,9.494721 7.1603951,9.4125192 7.1795483,9.3303174 7.0971821,9.1845312 7.0971821,9.1845312 l 1.0822357,0.2722234 c 0,0 -0.2184935,0.8409314 -1.0400493,1.0482404 -0.8215559,0.207309 -1.3883707,0.176893 -1.8109217,0.0771 C 4.905896,10.482295 4.1187876,10.12786 3.7522815,9.6667195 3.3857756,9.205579 3.2477105,8.5608244 3.2132567,8.3777639 3.1788031,8.1947035 3.2430284,7.6201488 3.3388637,7.5013372 3.4891539,7.3150157 3.9712914,6.8915763 4.2365592,6.8534675 c 0.2652681,-0.038109 0.805048,0.00576 1.0960026,0.1334318 0.2909547,0.1276702 0.4774486,0.1452412 0.6269487,0.2146768 0.1495003,0.069436 0.265601,0.1621412 0.241884,0.047896 C 6.1776773,7.1352276 6.0613469,7.0326643 6.0613469,7.0326643 Z"
         id="path92"
         sodipodi:nodetypes="cssssssscscsccscsssssssc" /><path
         style="display:inline;fill:#0d2859;fill-opacity:1;stroke:none;stroke-width:0.132292;stroke-linecap:round;stroke-dasharray:none;stroke-opacity:1"
         d="m 8.4612665,4.3051601 c 0,0 0.4441296,0.4142261 0.5158237,0.8904052 0.071694,0.4761788 -0.093147,1.0795215 -0.093147,1.0795215 L 9.175601,6.4388562 c 0,0 0.6384383,-1.004833 0.4882804,-1.5274095 C 9.5137235,4.3888703 9.0369038,3.9466589 9.0369038,3.9466589 Z"
         id="path93" /><path
         style="display:inline;fill:#0d2859;fill-opacity:1;stroke:none;stroke-width:0.132292;stroke-linecap:round;stroke-dasharray:none;stroke-opacity:1"
         d="m 6.9307103,7.772751 c 0,0 0.9122243,-1.0773003 1.1913744,-1.2118568 C 8.4012349,6.426338 8.6318069,6.4416917 8.7486942,6.5199417 8.8655819,6.5981917 8.892114,6.6909745 8.9028725,6.8245785 8.9136305,6.9581827 9.0167513,7.8393831 8.9983969,7.94363 8.9800427,8.0478772 8.8661444,8.2176748 8.7012865,8.2897542 8.5364283,8.3618336 8.1931893,8.4577051 7.9574743,8.4786556 7.7217595,8.4996053 7.5898466,8.4653815 7.5898466,8.4653815 c 0,0 -0.3892148,-0.3504018 -0.5416467,-0.3937728 C 6.8957679,8.0282377 6.0062451,7.6000749 5.4746119,7.9292901 4.942979,8.2585053 5.0119386,8.633394 5.0075012,8.8442209 5.0030641,9.055048 5.1695904,9.5991446 5.4345544,9.7209903 5.6995183,9.8428356 6.2406543,9.9242106 6.5759245,9.7636358 6.9111947,9.6030607 6.9146478,9.247466 6.9146478,9.247466 c 0,0 -0.7594387,-0.4424717 -0.8948223,-0.3769982 -0.1353839,0.065474 -0.2113524,0.2091502 -0.2113524,0.2091502 0,0 0.178329,-0.060812 0.2310392,-0.00401 0.052711,0.056807 0.087547,0.1514592 -0.089401,0.1832031 C 5.7731634,9.290559 5.519696,9.2899626 5.4704076,9.2389054 5.4211192,9.1878477 5.2076193,8.9444604 5.2182256,8.7047513 5.2288328,8.4650423 5.3190477,8.2338491 5.65387,8.2136426 c 0.3348223,-0.020206 0.8264993,0.185575 1.0186985,0.2983508 0.1921991,0.112776 0.742354,0.4676627 0.742354,0.4676627 0,0 1.2617074,-0.054729 1.6357026,-0.2871944 C 9.4246203,8.4599959 9.7022396,8.2931419 9.7321897,8.1573244 9.7621394,8.0215072 9.7692541,6.7098094 9.683637,6.572448 9.59802,6.4350864 9.292803,6.135472 9.2367933,6.1324176 9.1807837,6.1293643 9.1721638,6.059731 8.9822581,6.0778695 8.7923526,6.0960067 8.2535469,6.3146488 8.1490422,6.3748833 8.044538,6.4351179 7.6455422,6.6352212 7.5955532,6.6972946 7.5455642,6.7593679 7.1834522,7.1129834 7.0764648,7.2610906 6.969477,7.4091977 6.9307103,7.772752 6.9307103,7.772751 Z"
         id="path94"
         sodipodi:nodetypes="csssssscssssscscccsssscssssssssc" /><circle
         style="display:inline;fill:#0d2859;fill-opacity:1;stroke:none;stroke-width:0.132292;stroke-linecap:round;stroke-dasharray:none;stroke-opacity:1"
         id="circle94"
         cx="8.4089718"
         cy="4.9285684"
         r="0.079374999" /><circle
         style="display:inline;fill:#0d2859;fill-opacity:1;stroke:none;stroke-width:0.132292;stroke-linecap:round;stroke-dasharray:none;stroke-opacity:1"
         id="circle95"
         cx="8.4089718"
         cy="10.018477"
         r="0.079374999" /><path
         id="path95"
         style="fill:#0d2859;fill-opacity:1;stroke-width:0.132292;stroke-linecap:round"
         d="m 8.3295965,4.9285683 h 0.15875 l -0.043259,1.4866213 0.043259,3.6032884 h -0.15875 L 8.369972,6.4151896 Z"
         sodipodi:nodetypes="ccccccc" /><circle
         style="display:inline;fill:#0d2859;fill-opacity:1;stroke:none;stroke-width:0.10881;stroke-linecap:round;stroke-dasharray:none;stroke-opacity:1"
         id="circle96"
         cx="8.4051037"
         cy="5.4777465"
         r="0.13551453" /><circle
         style="display:inline;fill:#0d2859;fill-opacity:1;stroke:none;stroke-width:0.0830467;stroke-linecap:round;stroke-dasharray:none;stroke-opacity:1"
         id="circle97"
         cx="8.4051037"
         cy="5.7594461"
         r="0.1034283" /><circle
         style="display:inline;fill:#0d2859;fill-opacity:1;stroke:none;stroke-width:0.10881;stroke-linecap:round;stroke-dasharray:none;stroke-opacity:1"
         id="circle98"
         cx="5.7486272"
         cy="2.7991486"
         r="0.13551453"
         transform="rotate(7.4175047)" /><circle
         style="display:inline;fill:#0d2859;fill-opacity:1;stroke:none;stroke-width:0.0830467;stroke-linecap:round;stroke-dasharray:none;stroke-opacity:1"
         id="circle99"
         cx="5.7486272"
         cy="3.0808482"
         r="0.1034283"
         transform="rotate(7.4175047)" /></g></g></svg>
