<?xml version="1.0" encoding="UTF-8" standalone="no"?>
<!-- Created with Inkscape (http://www.inkscape.org/) -->

<svg
   width="250"
   height="50"
   viewBox="0 0 66.145831 13.229167"
   version="1.1"
   id="svg1"
   xml:space="preserve"
   inkscape:version="1.3.2 (091e20ef0f, 2023-11-25)"
   sodipodi:docname="divider.svg"
   xmlns:inkscape="http://www.inkscape.org/namespaces/inkscape"
   xmlns:sodipodi="http://sodipodi.sourceforge.net/DTD/sodipodi-0.dtd"
   xmlns="http://www.w3.org/2000/svg"
   xmlns:svg="http://www.w3.org/2000/svg"><sodipodi:namedview
     id="namedview1"
     pagecolor="#ffffff"
     bordercolor="#000000"
     borderopacity="0.25"
     inkscape:showpageshadow="2"
     inkscape:pageopacity="0.0"
     inkscape:pagecheckerboard="0"
     inkscape:deskcolor="#d1d1d1"
     inkscape:document-units="px"
     inkscape:zoom="4.5736306"
     inkscape:cx="119.59864"
     inkscape:cy="-0.76525639"
     inkscape:window-width="1904"
     inkscape:window-height="971"
     inkscape:window-x="8"
     inkscape:window-y="64"
     inkscape:window-maximized="0"
     inkscape:current-layer="layer1" /><defs
     id="defs1" /><g
     inkscape:label="Layer 1"
     inkscape:groupmode="layer"
     id="layer1"><g
       id="g52"
       transform="matrix(1.4448439,0,0,1.4448439,-7.9260701,1.1104495)"
       style="fill:#0d2859;fill-opacity:1"><path
         id="path36"
         style="fill:#0d2859;stroke-width:0.85;fill-opacity:1"
         d="m 26.518089,4.9465514 c -0.939126,0.1560598 -2.010955,0.2141102 -2.89674,0.1568875 l -0.229421,-0.014821 -0.02899,0.1301856 c -0.153068,0.687179 -0.720815,1.4425134 -1.387735,1.8462497 -0.189958,0.114999 -0.493648,0.2359302 -0.546394,0.2175252 -0.07249,-0.025262 0.08798,-0.5301653 0.256035,-0.8055857 0.310948,-0.509599 0.834355,-1.0270855 1.306403,-1.2916276 L 23.193465,5.072042 22.893832,5.035418 C 22.729034,5.015275 22.448502,4.976046 22.27043,4.948244 21.970886,4.901476 21.918451,4.901246 21.569606,4.945174 21.154478,4.997446 20.624733,5.0998128 20.301434,5.1902327 20.021635,5.2684887 19.436559,5.5310392 19.198473,5.6851862 18.950274,5.8458802 18.661344,6.0905374 18.440418,6.3270851 18.23811,6.5437008 18.17345,6.5898507 18.13795,6.5429672 18.10741,6.5026352 18.17759,6.4106384 18.434466,6.1542509 18.705791,5.8834445 18.962733,5.6811611 19.269296,5.4970111 19.734311,5.2176785 20.382712,5.0046428 21.139168,4.882663 21.330204,4.851856 21.487857,4.822781 21.489506,4.818049 21.491206,4.813279 21.420716,4.795238 21.332973,4.77787 20.745271,4.6615513 19.455961,4.3312394 18.420928,4.0318294 L 17.887136,3.8774167 17.778904,4.0270838 C 17.63947,4.2198882 17.483151,4.3755097 17.246358,4.5572467 16.715937,4.9643395 15.837978,5.2238475 15.32808,5.1242536 l -0.09227,-0.018022 0.06081,-0.097494 c 0.261741,-0.4196574 0.858627,-0.8203172 1.576155,-1.0579947 0.252644,-0.083688 0.574102,-0.1593414 0.661654,-0.1557174 0.0252,0.00104 0.04392,-0.00207 0.04158,-0.00689 C 17.569909,3.7755495 16.550427,3.4781311 16.29676,3.4149353 15.989761,3.3384523 15.494863,3.2417531 15.14387,3.1896682 l -0.304082,-0.045124 -0.03667,0.1541415 c -0.09822,0.4129114 -0.486272,0.9658092 -0.960792,1.3689589 -0.178882,0.1519775 -0.223755,0.1794324 -0.549449,0.3361226 -0.387447,0.1864087 -0.492873,0.2142884 -0.489359,0.1294306 0.009,-0.217232 0.220182,-0.6531538 0.469529,-0.9691632 0.3227,-0.4089713 0.610354,-0.6522488 1.044034,-0.8829695 l 0.294622,-0.1567353 -0.227618,-0.014775 c -0.686256,-0.044548 -1.440708,0.00309 -2.125156,0.1341805 l -0.265245,0.050804 -0.273682,0.1971904 C 10.952435,4.0447703 10.359924,4.6064789 9.993703,5.1282878 9.80761,5.3934422 9.698618,5.5908588 9.57684,5.8833478 9.49802,6.0726663 9.473589,6.1118611 9.439655,6.1034598 9.375635,6.0876088 9.375935,6.0677388 9.442955,5.8882524 9.728488,5.123564 10.365352,4.3637661 11.340329,3.6246224 11.635633,3.4007502 11.650125,3.3854184 11.538676,3.4147869 11.338142,3.4676299 10.740444,3.6771702 10.428373,3.8040348 9.653855,4.1188954 8.6963776,4.6359317 7.7736454,5.237577 7.6169477,5.3397465 7.4634014,5.4355982 7.4324269,5.4505713 7.3746439,5.4785153 7.3132515,5.4479934 7.3304798,5.3998879 7.341418,5.3693425 7.9704004,4.9599518 8.4588478,4.6654555 8.6450196,4.5532082 9.0900166,4.3127092 9.44773,4.1310134 L 10.09812,3.8006597 9.938457,3.7842227 C 9.489213,3.7379738 8.8534252,3.4327315 8.4195464,3.0549916 8.1912124,2.8562014 8.0524349,2.6900726 7.9289467,2.4677007 l -0.1129152,-0.2033332 0.094747,-0.00538 c 0.1911323,-0.010844 0.3832397,0.020606 0.6526808,0.1068534 0.6856567,0.2194758 1.3284877,0.6937442 1.6279487,1.2010709 0.08871,0.1502972 0.09121,0.1524511 0.156531,0.1355885 0.03651,-0.00943 0.108537,-0.037488 0.160055,-0.062359 0.141264,-0.068198 0.630855,-0.235806 0.988547,-0.3384223 0.41759,-0.1197999 1.008268,-0.2406504 1.362166,-0.2786947 0.02054,-0.00218 -0.02445,-0.021729 -0.09994,-0.043392 C 12.44949,2.890897 12.037229,2.5828639 11.702232,2.1902153 11.547778,2.0091755 11.511761,1.9526377 11.385318,1.6927213 11.306857,1.5314384 11.241446,1.3743109 11.239952,1.3435514 l -0.0027,-0.055928 0.117272,0.016691 c 0.515798,0.073415 1.255621,0.5602274 1.617261,1.0641786 0.08444,0.1176717 0.241769,0.4635054 0.259224,0.5698278 0.0068,0.041474 0.0302,0.046685 0.173847,0.038907 0.583848,-0.031672 1.456931,0.026238 2.04879,0.1358924 l 0.130262,0.024136 -0.03569,-0.151911 C 15.404893,2.3753987 15.132218,1.8630782 14.749768,1.4851906 14.590181,1.3275068 14.24446,1.0547478 14.010128,0.90164834 13.809224,0.77038688 13.765234,0.71783048 13.830064,0.68651148 c 0.05239,-0.025305 0.216114,0.074379 0.583631,0.35533892 0.697843,0.533486 1.020766,1.0221609 1.243087,1.8811371 0.04962,0.1917338 0.06616,0.2322717 0.09857,0.2417938 0.02142,0.0063 0.190367,0.045685 0.375432,0.087541 0.185065,0.041855 0.530418,0.1325391 0.767453,0.20152 0.237034,0.06898 0.486917,0.1407429 0.555294,0.1594724 l 0.124325,0.034055 -0.127952,-0.1154902 C 17.18414,3.2919862 16.846609,2.8566335 16.626649,2.4700326 16.439821,2.1416685 16.298701,1.6755468 16.304548,1.4061714 l 0.0023,-0.1039966 0.151391,0.05999 c 0.282149,0.1118043 0.673841,0.4658403 0.946954,0.8559154 0.287243,0.4102636 0.516422,1.0617537 0.508133,1.4443517 l -0.002,0.092167 0.514075,0.1483068 c 0.282742,0.081569 0.67196,0.1924458 0.864931,0.2463923 0.488983,0.1366978 1.64502,0.4226861 1.650067,0.4082035 0.0023,-0.00659 -0.02898,-0.030161 -0.0695,-0.052398 C 20.673565,4.396812 20.249259,3.9905951 20.00266,3.6739193 19.911938,3.5574085 19.839333,3.4304874 19.706027,3.1553469 19.547146,2.8274269 19.526802,2.7730213 19.502214,2.6106656 c -0.01502,-0.099207 -0.02152,-0.1831738 -0.01443,-0.1865939 0.0071,-0.0034 0.08944,0.02142 0.183016,0.0552 0.736992,0.2660363 1.480729,1.1735134 1.656326,2.0209829 l 0.03142,0.1515888 0.08142,0.019588 c 0.294559,0.070862 1.482428,0.2595524 1.670964,0.2654291 l 0.0732,0.00228 -0.06857,-0.037966 C 22.901577,4.7827097 22.602469,4.5058092 22.377139,4.2175831 22.187503,3.9750133 21.937283,3.4954199 21.861867,3.2299628 21.798398,3.006565 21.761732,2.771599 21.774351,2.6691844 l 0.0081,-0.065313 0.137889,0.057252 c 0.181757,0.075466 0.535956,0.3550623 0.715837,0.565065 0.415759,0.4853808 0.682455,1.0292429 0.746244,1.521791 0.03204,0.2473728 -0.02114,0.2206005 0.481568,0.2424265 0.910489,0.039531 1.751224,-0.017198 2.740776,-0.1849362 0.148437,-0.025162 0.170606,-0.022919 0.183803,0.018564 0.02082,0.065444 -0.0094,0.079152 -0.270423,0.1225217 z m -8.551434,2.6230064 c -0.3224,0.0106 -0.554697,-0.3168319 -0.434531,-0.6124831 0.112833,-0.277607 0.448129,-0.3723896 0.684086,-0.1933788 0.125337,0.09509 0.19977,0.2878928 0.167071,0.4327694 -0.04582,0.2029995 -0.228865,0.3669185 -0.416623,0.3730905 z m 1.433713,-0.8839726 c -0.07951,0.00417 -0.184995,-0.029376 -0.253609,-0.080571 -0.08606,-0.064209 -0.152908,-0.2239155 -0.138291,-0.3303619 0.01375,-0.1001164 0.119513,-0.2549975 0.201014,-0.2943707 0.08151,-0.039374 0.268566,-0.025957 0.355544,0.025499 0.161073,0.095293 0.214711,0.3203855 0.119553,0.5017109 -0.04032,0.07684 -0.194456,0.1734255 -0.284212,0.1780929 z M 17.484575,6.3036538 c -0.185731,0.018615 -0.303802,-0.054655 -0.374299,-0.2322772 -0.05449,-0.1373084 -0.04496,-0.2260972 0.03705,-0.3449541 0.06882,-0.099742 0.227261,-0.1675517 0.341055,-0.1459675 0.145749,0.027645 0.230278,0.094522 0.281526,0.2227337 0.0953,0.2384228 -0.04009,0.4758848 -0.285336,0.5004626 z M 18.508243,5.7341901 C 18.322512,5.7528051 18.20444,5.6795331 18.133944,5.5019128 18.079994,5.365994 18.088984,5.2758284 18.167904,5.1614009 18.2789,5.0004467 18.480657,4.9633381 18.66517,5.0699359 c 0.158476,0.091557 0.213995,0.3628882 0.104207,0.5092687 -0.06572,0.087635 -0.162565,0.1451048 -0.261128,0.1549891 z m 0.977855,-0.4971303 c -0.227248,0.00892 -0.414242,-0.2198365 -0.367336,-0.4493774 0.06058,-0.2964337 0.45644,-0.3835474 0.643664,-0.1416434 0.178821,0.2310487 0.01589,0.5795479 -0.276328,0.5910208 z M 9.34954,7.1554298 C 9.0317472,7.1442625 8.8295453,6.8657529 8.9242759,6.5696783 8.9647962,6.4430351 9.0297271,6.3692832 9.1532314,6.3096191 9.577952,6.1044379 9.982456,6.6038891 9.697306,6.9814042 9.627906,7.0732882 9.45626,7.1591834 9.349548,7.1554468 Z M 10.335061,5.8647923 C 10.198653,5.8451553 10.093889,5.7751273 10.04284,5.6694569 9.88119,5.334845 10.235397,5.0054445 10.556999,5.1913061 c 0.06793,0.039257 0.08947,0.067304 0.132543,0.1724995 0.03383,0.082531 0.04669,0.1506723 0.0376,0.1986887 -0.03477,0.1836854 -0.220618,0.3269806 -0.392085,0.3022991 z M 11.210463,4.8937621 C 11.032914,4.8749001 10.909753,4.765903 10.877829,4.599385 c -0.03325,-0.1734546 0.09808,-0.3881878 0.259326,-0.4240068 0.324619,-0.072109 0.567077,0.247105 0.412913,0.5436331 -0.05381,0.1035091 -0.217474,0.1877262 -0.339606,0.1747485 z M 8.983986,5.726631 C 8.7148278,5.7202603 8.5534656,5.462036 8.6605187,5.2089932 8.8092632,4.8574043 9.351503,4.9776338 9.354186,5.3627985 9.355587,5.5637548 9.1850178,5.7313887 8.983986,5.726631 Z M 6.8499094,6.2724019 C 6.6900685,6.274883 6.5079992,6.1602537 6.4379229,6.0130207 6.3591124,5.8474362 6.4132945,5.5881094 6.5473607,5.4892303 6.8056355,5.2987419 7.1086882,5.3609764 7.2392918,5.6313236 c 0.068862,0.142542 0.068156,0.2474698 -0.00268,0.3975303 -0.040339,0.085454 -0.06575,0.1096428 -0.1796585,0.170968 -0.083309,0.044872 -0.160331,0.071885 -0.207048,0.072582 z m 7.4330896,-4.033515 c -0.121187,0.029866 -0.194292,0.017569 -0.294324,-0.049507 -0.222267,-0.1490376 -0.212716,-0.4677916 0.01822,-0.6080541 0.188071,-0.1142312 0.408967,-0.051605 0.506997,0.1437393 0.106448,0.2121384 -0.004,0.457906 -0.230889,0.5138214 z M 15.5501,1.6108682 c -0.168036,0.015268 -0.339056,-0.1004771 -0.389791,-0.2638051 -0.03815,-0.122812 0.01263,-0.2916309 0.114589,-0.38095256 0.197801,-0.1732869 0.528274,-0.068365 0.594661,0.18880006 0.0249,0.096437 -0.01056,0.2483901 -0.07493,0.3210333 -0.05395,0.060894 -0.176999,0.1287894 -0.244533,0.1349266 z M 7.2094107,4.9299975 C 6.951215,4.9104799 6.7919032,4.6088338 6.9214094,4.384687 6.9586188,4.3202858 6.9968212,4.2873618 7.0820079,4.2462801 7.2920638,4.1449783 7.4823318,4.2179761 7.5674906,4.4325394 7.6223611,4.5707902 7.6137276,4.6602095 7.5344027,4.7752387 7.4647867,4.8761888 7.3322833,4.939286 7.2094095,4.929995 Z M 14.714376,0.77221398 c -0.129624,-0.020433 -0.216337,-0.086344 -0.275957,-0.209757 -0.08941,-0.1850685 -0.01384,-0.3879422 0.179236,-0.481218 0.167067,-0.0807090028 0.391988,-0.00271 0.472445,0.1638323 0.05046,0.1044414 0.05176,0.1916226 0.0048,0.3163106 -0.02876,0.076259 -0.05298,0.1007622 -0.156698,0.1584862 -0.10658,0.059314 -0.135953,0.066189 -0.223772,0.052346 z m -1.334716,0.096752 c -0.04111,0.00162 -0.112935,-0.014175 -0.159604,-0.035087 -0.191301,-0.085718 -0.271095,-0.27893376 -0.193767,-0.46919066 0.0512,-0.1259598 0.141939,-0.2008716 0.267747,-0.2210373 0.191181,-0.030644 0.345527,0.060813 0.40937,0.2425693 0.07865,0.2239146 -0.08874,0.47351976 -0.323747,0.48274656 z" /><path
         id="path51"
         style="fill:#0d2859;stroke-width:0.85;fill-opacity:1"
         d="m 30.234043,4.9465512 c 0.939126,0.1560598 2.010955,0.2141102 2.89674,0.1568875 l 0.229421,-0.014821 0.02899,0.1301856 c 0.153068,0.687179 0.720815,1.4425134 1.387735,1.8462499 0.189958,0.1149991 0.493648,0.235931 0.546394,0.217526 0.07249,-0.02526 -0.08798,-0.5301662 -0.256035,-0.8055867 C 34.756344,5.9673939 34.232937,5.4499074 33.760889,5.1853653 l -0.202218,-0.1133232 0.299633,-0.036624 c 0.164798,-0.020143 0.44533,-0.059372 0.623402,-0.087174 0.299544,-0.046768 0.351979,-0.046998 0.700824,-0.00307 0.415128,0.052272 0.944873,0.1546388 1.268172,0.2450587 0.279799,0.078256 0.864875,0.3408065 1.102961,0.4949535 0.248199,0.160694 0.537129,0.4053512 0.758055,0.6418989 0.202308,0.2166157 0.266968,0.2627656 0.302468,0.2158821 C 38.644726,6.5026363 38.574546,6.4106402 38.31767,6.1542527 38.046345,5.8834463 37.789403,5.6811629 37.48284,5.4970129 37.017825,5.2176803 36.369424,5.0046446 35.612968,4.8826648 35.421932,4.8518578 35.264279,4.8227828 35.26263,4.8180508 c -0.0017,-0.00477 0.06879,-0.022812 0.156533,-0.040179 0.587698,-0.1163214 1.877008,-0.4466333 2.912041,-0.7460433 l 0.533792,-0.1544127 0.108232,0.1496671 c 0.139434,0.1928044 0.295753,0.3484259 0.532546,0.5301629 0.530421,0.4070928 1.40838,0.6666008 1.918278,0.5670069 l 0.09227,-0.018022 -0.06081,-0.097494 C 41.222879,4.6357628 40.725523,4.277788 40.114019,4.0359064 40.037487,4.0056342 39.959168,3.9771804 39.879356,3.9507431 39.626711,3.8670561 39.305254,3.7914017 39.217702,3.7950257 c -0.0252,0.00104 -0.04392,-0.00207 -0.04158,-0.00689 0.0061,-0.012583 1.025585,-0.3100013 1.279252,-0.3731971 0.306999,-0.076483 0.801897,-0.1731822 1.15289,-0.2252671 l 0.304082,-0.045124 0.03667,0.1541415 c 0.09822,0.4129114 0.486272,0.9658092 0.960792,1.3689588 0.178882,0.1519776 0.223755,0.1794325 0.549449,0.3361227 0.387447,0.1864087 0.492874,0.2142884 0.489359,0.1294306 -0.009,-0.217232 -0.220182,-0.6531538 -0.469529,-0.9691632 -0.3227,-0.4089713 -0.610354,-0.6522488 -1.044034,-0.8829695 L 42.140432,3.124333 42.36805,3.109558 c 0.686256,-0.044548 1.440709,0.00309 2.125157,0.1341805 l 0.265244,0.050804 0.273682,0.1971904 c 0.767569,0.5530401 1.360079,1.1147487 1.726301,1.6365576 0.186092,0.2651544 0.295084,0.462571 0.416863,0.75506 0.07882,0.1893185 0.10325,0.2285133 0.137184,0.220112 0.06402,-0.015851 0.06372,-0.03572 -0.0033,-0.2152074 C 47.023644,5.123564 46.386782,4.3637662 45.411803,3.6246225 45.116499,3.4007503 45.102008,3.3854185 45.213456,3.414787 c 0.200535,0.052843 0.798233,0.2623833 1.110304,0.3892479 0.774518,0.3148603 1.731995,0.8318966 2.654728,1.4335419 0.156697,0.1021695 0.310244,0.1980212 0.341218,0.2129943 0.05778,0.027944 0.119176,-0.00258 0.101947,-0.050684 C 49.410715,5.3693423 48.781732,4.9599516 48.293285,4.6654553 48.107114,4.553208 47.662117,4.312709 47.304403,4.1310132 l -0.65039,-0.3303537 0.159663,-0.016437 c 0.449244,-0.046249 1.085032,-0.3514914 1.51891,-0.7292313 0.228334,-0.1987902 0.367112,-0.364919 0.4906,-0.5872908 l 0.112916,-0.2033333 -0.09475,-0.00537 c -0.191132,-0.010848 -0.38324,0.020602 -0.65268,0.1068493 -0.685657,0.2194758 -1.328487,0.6937442 -1.627949,1.2010709 -0.08871,0.1502972 -0.09121,0.1524511 -0.156531,0.1355885 -0.03651,-0.00943 -0.108537,-0.037488 -0.160055,-0.062359 C 46.102876,3.5719474 45.613284,3.4043396 45.255592,3.3017233 44.838001,3.1819234 44.247323,3.0610729 43.893425,3.0230286 c -0.02054,-0.00218 0.02445,-0.021729 0.09994,-0.043392 0.30928,-0.08874 0.721541,-0.3967729 1.056538,-0.7894216 0.154454,-0.1810398 0.190471,-0.2375775 0.316914,-0.4974939 0.07846,-0.1612829 0.143873,-0.3184105 0.145366,-0.3491699 l 0.0027,-0.055928 -0.117272,0.016691 c -0.515798,0.073414 -1.255621,0.5602275 -1.617261,1.0641786 -0.08444,0.1176717 -0.241769,0.4635054 -0.259224,0.5698279 -0.0068,0.041474 -0.0302,0.046685 -0.173847,0.038907 -0.583848,-0.031672 -1.456931,0.026238 -2.04879,0.1358924 l -0.130262,0.024136 0.03569,-0.151911 c 0.143303,-0.6099465 0.415978,-1.1222671 0.798428,-1.5001547 0.159587,-0.1576838 0.505308,-0.4304427 0.73964,-0.58354222 0.200904,-0.1312614 0.244894,-0.1838179 0.180064,-0.2151369 -0.05239,-0.025305 -0.216114,0.074379 -0.583631,0.35533902 -0.697843,0.533486 -1.020766,1.0221608 -1.243087,1.8811371 -0.04962,0.1917338 -0.06616,0.2322717 -0.09857,0.2417938 -0.02142,0.0063 -0.190367,0.045685 -0.375432,0.087541 -0.185065,0.041855 -0.530418,0.1325392 -0.767453,0.2015201 -0.237034,0.06898 -0.486917,0.1407428 -0.555294,0.1594724 l -0.124308,0.034056 0.127952,-0.1154901 c 0.265766,-0.2398943 0.603297,-0.675247 0.823257,-1.0618479 0.186828,-0.3283641 0.327948,-0.7944858 0.322101,-1.0638612 l -0.0023,-0.1039967 -0.151391,0.05999 C 40.011744,1.4739692 39.620052,1.8280051 39.346939,2.2180803 39.059696,2.6283438 38.830517,3.279834 38.838806,3.662432 l 0.002,0.092167 -0.514075,0.1483068 c -0.282742,0.081569 -0.67196,0.1924458 -0.864931,0.2463922 -0.488983,0.1366979 -1.64502,0.4226861 -1.650067,0.4082036 -0.0023,-0.00659 0.02898,-0.030161 0.0695,-0.052398 0.197293,-0.1082909 0.621599,-0.5145078 0.868198,-0.8311835 0.09072,-0.1165109 0.163327,-0.2434319 0.296633,-0.5185724 0.158881,-0.3279201 0.179225,-0.3823256 0.203813,-0.5446814 0.01502,-0.099207 0.02151,-0.1831737 0.01443,-0.1865939 -0.0071,-0.0034 -0.08944,0.02142 -0.183016,0.0552 -0.73699,0.2660362 -1.480727,1.1735133 -1.656324,2.0209829 l -0.03142,0.1515888 -0.08142,0.019588 c -0.294559,0.070862 -1.482428,0.2595525 -1.670964,0.2654292 l -0.0732,0.00228 0.06857,-0.037966 C 33.850555,4.7827098 34.149663,4.5058092 34.374993,4.2175831 34.564629,3.9750134 34.814849,3.49542 34.890265,3.2299629 34.953735,3.006565 34.9904,2.7715991 34.977785,2.6691845 l -0.0081,-0.065313 -0.137889,0.057252 C 34.650039,2.7365885 34.29584,3.0161857 34.115959,3.2261884 33.7002,3.7115693 33.433504,4.2554314 33.369715,4.7479795 33.337675,4.9953522 33.390855,4.96858 32.888147,4.990406 31.977658,5.029937 31.136923,4.973208 30.147371,4.8054697 c -0.148437,-0.025162 -0.170606,-0.022919 -0.183803,0.018564 -0.02082,0.065444 0.0094,0.079152 0.270423,0.1225217 z m 8.551434,2.623006 c 0.3224,0.0106 0.554697,-0.316831 0.434531,-0.6124825 -0.112833,-0.2776072 -0.448129,-0.3723898 -0.684086,-0.1933792 -0.125337,0.09509 -0.19977,0.2878933 -0.167071,0.4327698 0.04582,0.2029999 0.228865,0.3669189 0.416623,0.3730909 z M 37.351764,6.685585 c 0.07951,0.00417 0.184995,-0.029376 0.253609,-0.080571 0.08606,-0.064209 0.152908,-0.2239155 0.138291,-0.3303619 -0.01375,-0.1001164 -0.119513,-0.2549975 -0.201014,-0.2943707 -0.08151,-0.039374 -0.268566,-0.025957 -0.355544,0.025499 -0.161073,0.095293 -0.214711,0.3203855 -0.119553,0.5017109 0.04032,0.07684 0.194456,0.1734255 0.284212,0.1780929 z m 1.915793,-0.3819314 c 0.185731,0.018615 0.303802,-0.054655 0.374299,-0.2322772 0.05449,-0.1373084 0.04496,-0.2260972 -0.03705,-0.3449541 -0.06882,-0.099742 -0.227261,-0.1675517 -0.341055,-0.1459675 -0.145749,0.027645 -0.230278,0.094522 -0.281526,0.2227337 -0.0953,0.2384228 0.04009,0.4758848 0.285336,0.5004626 z M 38.243889,5.7341899 c 0.185731,0.018615 0.303803,-0.054657 0.374299,-0.2322773 0.05395,-0.1359188 0.04496,-0.2260844 -0.03396,-0.3405119 -0.110996,-0.1609542 -0.312753,-0.1980628 -0.497266,-0.091465 -0.158476,0.091557 -0.213995,0.3628882 -0.104207,0.5092687 0.06572,0.087635 0.162565,0.1451048 0.261128,0.1549891 z M 37.266034,5.2370596 c 0.227248,0.00892 0.414242,-0.2198365 0.367336,-0.4493774 -0.06058,-0.2964337 -0.45644,-0.3835474 -0.643664,-0.1416434 -0.178821,0.2310487 -0.01589,0.5795479 0.276328,0.5910208 z m 10.13656,1.9183703 c 0.317792,-0.011169 0.519994,-0.2896775 0.425263,-0.5857518 -0.04052,-0.1266432 -0.105451,-0.2003951 -0.228956,-0.2600592 -0.42472,-0.2051812 -0.829223,0.29427 -0.544075,0.6717854 0.0694,0.091884 0.241047,0.1777792 0.347759,0.1740426 z M 46.417072,5.8647921 c 0.136408,-0.019637 0.241173,-0.089665 0.292221,-0.1953354 0.16165,-0.3346119 -0.192556,-0.6640124 -0.514158,-0.4781508 -0.06793,0.039257 -0.08948,0.067304 -0.132544,0.1724995 -0.03383,0.082531 -0.04669,0.1506723 -0.0376,0.1986887 0.03477,0.1836854 0.220617,0.3269806 0.392085,0.3022991 z M 45.541669,4.8937619 c 0.17755,-0.018862 0.300712,-0.1278591 0.332635,-0.2943771 0.03325,-0.1734546 -0.09808,-0.3881878 -0.259326,-0.4240068 -0.32462,-0.072109 -0.567078,0.247105 -0.412914,0.5436331 0.05381,0.1035091 0.217475,0.1877262 0.339606,0.1747485 z m 2.226478,0.8328689 c 0.269158,-0.00638 0.43052,-0.2645951 0.323467,-0.5176378 -0.148744,-0.3515889 -0.690984,-0.2313594 -0.693667,0.1538053 -0.0014,0.2009563 0.169169,0.3685902 0.3702,0.3638325 z m 2.134077,0.5457709 c 0.15984,0.00248 0.34191,-0.1121482 0.411986,-0.2593812 0.07881,-0.1655845 0.02463,-0.4249113 -0.109437,-0.5237904 -0.258275,-0.1904884 -0.561328,-0.1282539 -0.691932,0.1420933 -0.06886,0.142542 -0.06815,0.2474698 0.0026,0.3975303 0.04034,0.085454 0.06575,0.1096428 0.179659,0.170968 0.08331,0.044872 0.160331,0.071885 0.207048,0.072582 z m -7.433091,-4.033515 c 0.121187,0.029866 0.194292,0.017569 0.294324,-0.049507 0.222267,-0.1490376 0.212716,-0.4677916 -0.01822,-0.6080541 -0.188071,-0.1142312 -0.408967,-0.051605 -0.506997,0.1437393 -0.106448,0.2121384 0.004,0.457906 0.230889,0.5138214 z M 41.202032,1.610868 c 0.168036,0.015268 0.339056,-0.1004772 0.389791,-0.2638051 0.03815,-0.122812 -0.01263,-0.2916308 -0.114589,-0.38095252 -0.197801,-0.1732869 -0.528274,-0.068365 -0.594661,0.18880002 -0.0249,0.096437 0.01056,0.2483901 0.07493,0.3210333 0.05395,0.060894 0.176999,0.1287894 0.244533,0.1349266 z m 8.34069,3.3191293 c 0.258196,-0.019518 0.417508,-0.3211637 0.288001,-0.5453105 -0.03721,-0.064401 -0.07541,-0.097325 -0.160598,-0.1384069 -0.210056,-0.1013018 -0.400323,-0.028304 -0.485482,0.1862593 -0.05487,0.1382508 -0.04624,0.2276701 0.03309,0.3426993 0.06961,0.10095 0.202119,0.1640472 0.324993,0.1547563 z M 42.037756,0.77221378 c 0.129624,-0.020433 0.216337,-0.086344 0.275957,-0.209757 0.08941,-0.1850685 0.01384,-0.3879422 -0.179236,-0.481218 -0.167067,-0.0807090028 -0.391988,-0.00271 -0.472445,0.1638323 -0.05046,0.1044414 -0.05177,0.1916226 -0.0048,0.3163106 0.02876,0.076259 0.05298,0.1007622 0.156698,0.1584862 0.10658,0.059314 0.135953,0.066189 0.223772,0.052346 z m 1.334716,0.096752 c 0.04111,0.00162 0.112935,-0.014175 0.159604,-0.035087 0.191301,-0.085718 0.271095,-0.2789338 0.193767,-0.4691907 -0.05119,-0.1259598 -0.141939,-0.2008716 -0.267747,-0.2210373 -0.191181,-0.030644 -0.345527,0.060813 -0.40937,0.2425693 -0.07865,0.2239146 0.08874,0.4735198 0.323747,0.4827466 z"
         sodipodi:nodetypes="cscsscsscsssssssssscsscssscsssscsscsscssscsscsssscsssscssscssscssssssccssscssccscsssssssssscssccssccssscssscsccsscsssccssssssccssscsssssssssssssssssssssssssssscsssccssscssssssssssscsssssccssssscssssssssssssssssssssssssssssss" /><circle
         style="fill:#0d2859;stroke:none;stroke-width:0.0926042;fill-opacity:1"
         id="path52"
         cx="28.376068"
         cy="4.8240337"
         r="0.79374999" /></g></g></svg>
