<?xml version="1.0" encoding="UTF-8" standalone="no"?>
<!-- Created with Inkscape (http://www.inkscape.org/) -->

<svg
   width="200"
   height="75"
   viewBox="0 0 52.916665 19.84375"
   version="1.1"
   id="svg1"
   xml:space="preserve"
   inkscape:version="1.3.2 (091e20ef0f, 2023-11-25)"
   sodipodi:docname="name-embellishment.svg"
   xmlns:inkscape="http://www.inkscape.org/namespaces/inkscape"
   xmlns:sodipodi="http://sodipodi.sourceforge.net/DTD/sodipodi-0.dtd"
   xmlns="http://www.w3.org/2000/svg"
   xmlns:svg="http://www.w3.org/2000/svg"><sodipodi:namedview
     id="namedview1"
     pagecolor="#ffffff"
     bordercolor="#000000"
     borderopacity="0.25"
     inkscape:showpageshadow="2"
     inkscape:pageopacity="0.0"
     inkscape:pagecheckerboard="0"
     inkscape:deskcolor="#d1d1d1"
     inkscape:document-units="px"
     inkscape:zoom="4.5736306"
     inkscape:cx="119.59864"
     inkscape:cy="-0.76525638"
     inkscape:window-width="1904"
     inkscape:window-height="971"
     inkscape:window-x="8"
     inkscape:window-y="64"
     inkscape:window-maximized="0"
     inkscape:current-layer="layer1" /><defs
     id="defs1" /><g
     inkscape:label="Layer 1"
     inkscape:groupmode="layer"
     id="layer1"><path
       id="path36"
       style="fill:#0d2859;fill-opacity:1;stroke-width:1.98512"
       d="m 49.626804,12.577371 c -2.19326,0.364467 -4.696435,0.500038 -6.765117,0.3664 l -0.535798,-0.03461 -0.0677,0.304038 c -0.35748,1.604855 -1.683411,3.368882 -3.240953,4.311778 -0.443633,0.268571 -1.152876,0.550997 -1.276061,0.508013 -0.169291,-0.05899 0.20547,-1.238162 0.597948,-1.881385 0.726199,-1.19013 1.948576,-2.398681 3.05101,-3.016498 l 0.47227,-0.264659 -0.699772,-0.08553 c -0.384877,-0.04704 -1.040036,-0.138658 -1.45591,-0.203587 -0.699563,-0.109224 -0.822022,-0.109759 -1.636721,-0.0072 -0.969504,0.122079 -2.206679,0.361148 -2.961722,0.572316 -0.653449,0.182761 -2.01985,0.795928 -2.575882,1.155927 -0.579649,0.375288 -1.254425,0.946667 -1.770381,1.499107 -0.472475,0.505889 -0.623483,0.613669 -0.706391,0.504176 -0.07133,-0.09419 0.09256,-0.309045 0.692492,-0.907819 0.633658,-0.632446 1.233727,-1.104865 1.949682,-1.534933 1.086009,-0.65236 2.600298,-1.149889 4.366945,-1.434764 0.446152,-0.07195 0.814336,-0.139849 0.81819,-0.1509 0.0041,-0.01114 -0.160651,-0.05327 -0.365573,-0.09383 -1.372533,-0.271654 -4.38362,-1.043072 -6.800861,-1.742322 l -1.246632,-0.36062 -0.252766,0.349537 c -0.325638,0.45028 -0.69071,0.813722 -1.243723,1.238156 -1.238759,0.950734 -3.289165,1.556796 -4.479992,1.324202 l -0.215492,-0.04209 0.14202,-0.227689 c 0.611278,-0.980079 2.00526,-1.915789 3.680993,-2.470868 0.590032,-0.195447 1.340772,-0.3721297 1.545242,-0.3636661 0.05884,0.00243 0.102582,-0.00482 0.09713,-0.016092 -0.01422,-0.029376 -2.395175,-0.7239749 -2.987595,-0.871564 -0.716972,-0.1786203 -1.87277,-0.404454 -2.692488,-0.5260945 l -0.710182,-0.1053725 -0.08564,0.359986 c -0.229377,0.9643237 -1.135641,2.2555741 -2.243848,3.1971001 -0.417766,0.354933 -0.522564,0.419051 -1.283199,0.78499 -0.904852,0.435344 -1.151066,0.500454 -1.14286,0.302275 0.02101,-0.507329 0.514217,-1.525392 1.09655,-2.263408 0.753641,-0.9551211 1.425435,-1.5232777 2.438263,-2.0621082 L 21.820345,8.321718 21.288761,8.2872119 c -1.602698,-0.1040387 -3.364665,0.0072 -4.963141,0.313368 l -0.619472,0.1186415 -0.639164,0.4605233 c -1.792595,1.2915853 -3.17636,2.6034133 -4.031641,3.8220583 -0.434607,0.619249 -0.689149,1.0803 -0.973552,1.763386 -0.1840787,0.442139 -0.2411354,0.533676 -0.3203859,0.514055 -0.149514,-0.03702 -0.1488132,-0.08342 0.00771,-0.5026 C 10.415956,12.990771 11.903304,11.21632 14.18029,9.4901057 14.86995,8.9672691 14.903795,8.9314628 14.643514,9.0000507 14.175179,9.1234615 12.7793,9.612827 12.050481,9.9091099 10.241653,10.644443 8.0055366,11.851943 5.850565,13.25704 5.4846093,13.495649 5.1260136,13.719503 5.0536748,13.754472 4.918727,13.819733 4.7753495,13.748451 4.8155851,13.636105 4.8411304,13.564768 6.3100713,12.608667 7.4508037,11.920893 7.8855938,11.658748 8.9248509,11.097081 9.760264,10.672744 L 11.279201,9.9012275 10.90632,9.8628402 C 9.8571442,9.7548292 8.3723095,9.0419589 7.3590182,8.1597758 6.8257615,7.6955164 6.5016569,7.3075349 6.2132595,6.788202 L 5.9495545,6.3133327 6.170829,6.300768 c 0.4463753,-0.025326 0.8950276,0.048123 1.5242869,0.2495481 1.6012997,0.5125694 3.1025831,1.6201874 3.8019521,2.8050109 0.207175,0.3510077 0.213014,0.356038 0.365566,0.3166567 0.08527,-0.022023 0.25348,-0.08755 0.373796,-0.1456351 0.329912,-0.159271 1.473315,-0.5507069 2.308678,-0.7903595 0.975249,-0.2797839 2.354734,-0.562021 3.181236,-0.6508706 0.04797,-0.00509 -0.0571,-0.050746 -0.233402,-0.1013385 C 16.770649,7.7765451 15.807844,7.057157 15.025483,6.1401556 14.664768,5.717351 14.580652,5.5853112 14.285355,4.978296 14.102115,4.601632 13.949353,4.2346722 13.945864,4.1628357 l -0.0063,-0.1306158 0.273879,0.038981 c 1.204608,0.1714543 2.932408,1.3083689 3.776991,2.4853093 0.197204,0.2748133 0.564635,1.0824819 0.605398,1.3307898 0.01584,0.096858 0.07052,0.1090282 0.406006,0.090864 1.363535,-0.073967 3.402553,0.061276 4.784796,0.3173663 l 0.304217,0.056367 -0.08336,-0.3547767 C 23.67277,6.5726375 23.035959,5.3761518 22.142775,4.4936237 21.770072,4.1253647 20.962666,3.4883567 20.4154,3.1308046 19.946205,2.8242533 19.84347,2.7015117 19.994876,2.6283686 c 0.122346,-0.059098 0.504718,0.1737079 1.363025,0.8298672 1.629759,1.2459165 2.383924,2.38718 2.903136,4.3932542 0.115884,0.4477801 0.154512,0.5424534 0.230204,0.5646916 0.05002,0.014706 0.444588,0.1066954 0.876794,0.204445 0.432204,0.097749 1.23875,0.3095354 1.792328,0.4706351 0.553575,0.1610971 1.137159,0.3286943 1.296847,0.3724355 l 0.290352,0.079533 -0.298823,-0.2697188 C 27.828069,8.713259 27.03979,7.6965253 26.526088,6.7936479 26.089767,6.0267785 25.760191,4.9381862 25.773847,4.3090802 l 0.0054,-0.2428763 0.353562,0.1401018 c 0.658938,0.2611106 1.573706,1.087935 2.21154,1.9989261 0.670834,0.9581397 1.206065,2.4796459 1.186707,3.3731747 l -0.0047,0.2152497 1.200585,0.3463598 c 0.660321,0.190497 1.569312,0.449442 2.01998,0.57543 1.141983,0.319247 3.841823,0.987151 3.853609,0.953328 0.0054,-0.01539 -0.06766,-0.07044 -0.162307,-0.122371 C 35.977358,11.293497 34.986422,10.344808 34.410509,9.6052349 34.198634,9.3331328 34.029071,9.036718 33.717745,8.394148 33.346692,7.6283156 33.299179,7.5012553 33.241756,7.122086 c -0.03508,-0.2316907 -0.05026,-0.4277888 -0.0337,-0.4357762 0.01656,-0.00794 0.20888,0.050026 0.427419,0.1289148 1.721191,0.6213076 3.458132,2.7406522 3.868226,4.7198544 l 0.07339,0.354023 0.190152,0.04575 c 0.68792,0.165493 3.462099,0.606166 3.902412,0.61989 l 0.170964,0.0053 -0.160128,-0.08867 C 41.180712,12.194731 40.482167,11.548051 39.955926,10.874921 39.513045,10.308417 38.928675,9.188363 38.752547,8.5684077 38.60432,8.0466792 38.518689,7.4979336 38.54816,7.258752 l 0.0189,-0.1525345 0.322029,0.1337082 c 0.424483,0.1762442 1.251686,0.8292212 1.671784,1.3196668 0.970975,1.1335702 1.593825,2.4037195 1.742798,3.5540285 0.07483,0.577721 -0.04936,0.515196 1.124665,0.566169 2.126378,0.09232 4.089853,-0.04016 6.400877,-0.431904 0.346663,-0.05877 0.398437,-0.05353 0.429258,0.04335 0.04862,0.152839 -0.02196,0.184854 -0.631552,0.286141 z m -19.97123,6.125835 c -0.752943,0.02477 -1.295457,-0.739939 -1.014817,-1.430409 0.263514,-0.648329 1.046572,-0.869686 1.597633,-0.451622 0.292715,0.222076 0.466548,0.672352 0.390182,1.010701 -0.10701,0.47409 -0.534498,0.85691 -0.972993,0.871324 z M 33.0039,16.638754 c -0.185687,0.0097 -0.432041,-0.0686 -0.592283,-0.188167 -0.200986,-0.149952 -0.357106,-0.522938 -0.322969,-0.771536 0.03211,-0.233814 0.279115,-0.595527 0.469453,-0.687481 0.19036,-0.09196 0.627216,-0.06062 0.830345,0.05955 0.376177,0.22255 0.501441,0.748237 0.279208,1.171709 -0.09418,0.179454 -0.454138,0.405023 -0.663756,0.415922 z m -4.47419,-0.891972 c -0.433761,0.04348 -0.709507,-0.127646 -0.874145,-0.542466 -0.12726,-0.320673 -0.104994,-0.528033 0.08653,-0.805614 0.160722,-0.23294 0.530752,-0.391305 0.79651,-0.340897 0.340386,0.06456 0.537796,0.220749 0.657484,0.520179 0.222565,0.556818 -0.09362,1.111393 -0.666383,1.168793 z m 2.3907,-1.32994 c -0.433759,0.04347 -0.709509,-0.127648 -0.874148,-0.542466 -0.126001,-0.317428 -0.104995,-0.528003 0.07931,-0.79524 0.259223,-0.375896 0.730411,-0.462561 1.161328,-0.21361 0.370109,0.213825 0.49977,0.847499 0.243368,1.189359 -0.153487,0.204665 -0.379658,0.338882 -0.609845,0.361966 z m 2.283708,-1.16101 c -0.530721,0.02083 -0.96743,-0.513411 -0.857885,-1.049487 0.14148,-0.692298 1.065981,-0.895746 1.503228,-0.330798 0.417622,0.539597 0.03712,1.353491 -0.645343,1.380285 z m -23.6731697,4.48021 c -0.7421812,-0.02609 -1.2144084,-0.676521 -0.9931724,-1.36798 0.094633,-0.295766 0.2462736,-0.468009 0.5347086,-0.607348 0.9919025,-0.479185 1.9365915,0.687245 1.2706455,1.568905 -0.162079,0.214587 -0.5629451,0.415189 -0.8121629,0.40646 z m 2.3016097,-3.014188 c -0.31857,-0.04586 -0.563239,-0.209406 -0.68246,-0.456192 -0.377521,-0.78146 0.449702,-1.55075 1.20078,-1.116684 0.158645,0.09168 0.208951,0.157183 0.309544,0.402859 0.07901,0.192745 0.10904,0.351884 0.08781,0.464023 -0.0812,0.428983 -0.515236,0.763639 -0.915684,0.705996 z m 2.044436,-2.267768 c -0.414653,-0.04405 -0.702286,-0.298606 -0.776842,-0.687495 -0.07765,-0.405091 0.229059,-0.906584 0.605637,-0.990237 0.758123,-0.168404 1.324365,0.577096 0.964327,1.269615 -0.12567,0.241738 -0.507895,0.43842 -0.793125,0.408112 z m -5.1997695,1.945103 c -0.6285987,-0.01488 -1.0054482,-0.617942 -0.7554337,-1.208904 0.3473817,-0.82111 1.6137421,-0.540323 1.6200079,0.3592 0.00327,0.469318 -0.3950796,0.860815 -0.8645742,0.849704 z M 3.693249,15.673795 c -0.3732962,0.0058 -0.7985056,-0.261914 -0.9621634,-0.605764 -0.1840559,-0.386711 -0.057518,-0.992349 0.2555838,-1.223273 0.6031813,-0.444872 1.310938,-0.299529 1.615953,0.331847 0.1608221,0.332896 0.1591733,0.577947 -0.00626,0.928403 -0.094208,0.199571 -0.1535542,0.256062 -0.419579,0.399282 -0.194562,0.10479 -0.3744408,0.167882 -0.4835449,0.16951 z M 21.052672,6.2538247 C 20.769649,6.323573 20.598915,6.2948558 20.365299,6.1382048 19.846213,5.7901385 19.868517,5.0457126 20.407849,4.71814 c 0.439225,-0.2667782 0.955111,-0.1205195 1.184052,0.3356924 0.248601,0.4954335 -0.0094,1.0694051 -0.539222,1.1999919 z M 24.01189,4.7871343 c -0.392438,0.035658 -0.79184,-0.2346568 -0.910328,-0.6160972 -0.0891,-0.2868181 0.0295,-0.681082 0.267614,-0.889686 0.46195,-0.4046984 1.233746,-0.1596625 1.388785,0.4409284 0.05816,0.2252213 -0.02466,0.5800964 -0.174997,0.7497491 -0.126,0.1422115 -0.413368,0.3007779 -0.571086,0.3151111 z M 4.5328375,12.538711 C 3.9298406,12.493131 3.5577799,11.788658 3.860232,11.265179 3.947131,11.114775 4.0363505,11.037884 4.2352976,10.94194 c 0.4905697,-0.236582 0.9349263,-0.0661 1.1338083,0.434995 0.1281459,0.322874 0.107983,0.531706 -0.077274,0.800348 -0.162583,0.235761 -0.4720347,0.38312 -0.7589974,0.361422 z M 22.060118,2.8285203 C 21.757391,2.7808002 21.554879,2.6268704 21.415644,2.3386484 21.206832,1.9064349 21.383315,1.4326388 21.834235,1.2148 c 0.390172,-0.1884896 0.915459,-0.00634 1.10336,0.382618 0.117847,0.2439153 0.120889,0.4475203 0.01116,0.7387196 -0.06718,0.1780982 -0.123732,0.2353226 -0.365956,0.3701327 -0.248912,0.1385251 -0.317507,0.1545794 -0.522604,0.1222495 z M 18.94299,3.0544772 C 18.84698,3.0582572 18.679239,3.0213712 18.570246,2.9725362 18.123478,2.772347 17.937125,2.3211061 18.117718,1.8767754 18.2373,1.5826056 18.449207,1.4076547 18.743022,1.3605593 c 0.446488,-0.071568 0.806951,0.1420243 0.956053,0.5665025 0.18368,0.5229356 -0.207246,1.1058696 -0.756086,1.1274182 z" /></g></svg>
