<?xml version="1.0" encoding="UTF-8" standalone="no"?>
<!-- Created with Inkscape (http://www.inkscape.org/) -->

<svg
   width="0.5in"
   height="0.5in"
   viewBox="0 0 12.7 12.7"
   version="1.1"
   id="svg1"
   xml:space="preserve"
   inkscape:version="1.3.2 (091e20ef0f, 2023-11-25)"
   sodipodi:docname="qr-code.svg"
   xmlns:inkscape="http://www.inkscape.org/namespaces/inkscape"
   xmlns:sodipodi="http://sodipodi.sourceforge.net/DTD/sodipodi-0.dtd"
   xmlns="http://www.w3.org/2000/svg"
   xmlns:svg="http://www.w3.org/2000/svg"><sodipodi:namedview
     id="namedview1"
     pagecolor="#ffffff"
     bordercolor="#000000"
     borderopacity="0.25"
     inkscape:showpageshadow="2"
     inkscape:pageopacity="0.0"
     inkscape:pagecheckerboard="0"
     inkscape:deskcolor="#d1d1d1"
     inkscape:document-units="in"
     inkscape:zoom="16.104167"
     inkscape:cx="24"
     inkscape:cy="24"
     inkscape:window-width="1904"
     inkscape:window-height="971"
     inkscape:window-x="8"
     inkscape:window-y="64"
     inkscape:window-maximized="0"
     inkscape:current-layer="layer1" /><defs
     id="defs1" /><g
     inkscape:label="Layer 1"
     inkscape:groupmode="layer"
     id="layer1"><path
       style="fill:#0e347c;fill-opacity:1"
       d="m 1.5663333,9.7578332 v -1.3335 h 1.3335 1.3335 v 1.3335 1.3334998 h -1.3335 -1.3335 z m 2.286,0 v -0.9525 h -0.9525 -0.9525 v 0.9525 0.9524998 h 0.9525 0.9525 z m -1.524,0 v -0.5715 h 0.5715 0.5715 v 0.5715 0.5714998 h -0.5715 -0.5715 z m 2.286,0.3809998 V 9.1863332 h 0.1905 0.1905 v -0.1905 -0.1905 h -0.1905 -0.1905 v -0.381 -0.381 h -0.381 -0.381 v -0.1905 -0.1905 h -0.1905 -0.1905 v 0.1905 0.1905 h -0.1905 -0.1905 v -0.1905 -0.1905 h -0.1905 -0.1905 v -0.1905 -0.1905 h -0.1905 -0.1905 v -0.1905 -0.1905 h 0.1905 0.1905 v -0.5715 -0.5715 h 0.1905 0.1905 v -0.1905 -0.1904999 h -0.5715 -0.5715 v 0.1904999 0.1905 h -0.1905 -0.1905 v -0.1905 -0.1904999 h 0.1905 0.1905 v -0.1905 -0.1905 h -0.1905 -0.1905 v -0.1905 -0.1905 h 0.9525 0.9525 v 0.1905 0.1905 h 0.1905 0.1905 v -0.1905 -0.1905 h 0.5715 0.5715 v -0.1905 -0.1905 h -0.1905 -0.1905 v -0.381 -0.381 h 0.1905 0.1905 v -0.1905 -0.1905 h -0.1905 -0.1905 v -0.1905 -0.1905 h 0.5715 0.5714999 v 0.1905 0.1905 h -0.1905 -0.1904999 v 0.381 0.381 h 0.1904999 0.1905 v -0.1905 -0.1905 h 0.5715 0.5715 v -0.381 -0.381 h 0.381 0.381 v -0.1905 -0.1905 h -0.5715 -0.5715 v 0.381 0.381 h -0.1905 -0.1905 v -0.381 -0.381 h 0.1905 0.1905 v -0.1905 -0.1905 h -0.1905 -0.1905 v -0.1905 -0.1905 h 0.1905 0.1905 v 0.1905 0.1905 h 0.762 0.762 v 0.381 0.381 h -0.1905 -0.1905 v 0.1905 0.1905 h -0.1905 -0.1905 v 0.1905 0.1905 h 0.1905 0.1905 v 0.1905 0.1905 h 0.1905 0.1905 v 0.381 0.381 h 0.1905 0.1905 v 0.381 0.381 h 0.1905 0.1905 v -0.381 -0.381 h 0.1905 0.1905 v 0.1905 0.1905 h 0.1905 0.1905 v -0.1905 -0.1905 h 0.1905 0.1905 v 0.1905 0.1905 h -0.1905 -0.1905 v 0.381 0.3809999 h -0.1905 -0.1905 v -0.1905 -0.1904999 h -0.1905 -0.1905 v 0.1904999 0.1905 h -0.381 -0.381 v 0.1905 0.1905 h -0.1905 -0.1905 v 0.1905 0.1905 h 0.381 0.381 v -0.1905 -0.1905 h 0.762 0.762 v 0.1905 0.1905 h -0.1905 -0.1905 v 0.381 0.381 h -0.1905 -0.1905 v -0.1905 -0.1905 h -0.1905 -0.1905 v 0.1905 0.1905 h -0.381 -0.381 v 0.1905 0.1905 h 0.9525 0.9525 v 0.1905 0.1905 h -0.1905 -0.1905 v 0.381 0.381 h 0.1905 0.1905 v -0.1905 -0.1905 h 0.3809998 0.381 v -0.381 -0.381 h -0.1905 -0.1905 v -0.1905 -0.1905 h -0.1905 -0.1904998 v -0.1905 -0.1905 h 0.1904998 0.1905 v -0.381 -0.381 h 0.381 0.381 v 0.381 0.381 h -0.381 -0.381 v 0.1905 0.1905 h 0.381 0.381 v 0.762 0.762 h -0.5715 -0.5714998 v 0.381 0.381 h -0.1905 -0.1905 v 0.381 0.3809998 h 0.1905 0.1905 v -0.1905 -0.1904998 h 0.1904998 0.1905 v -0.1905 -0.1905 h 0.381 0.381 v 0.381 0.3809998 h -0.1905 -0.1905 v 0.1905 0.1905 h 0.1905 0.1905 v 0.1905 0.1905 h -0.5715 -0.5714998 v -0.1905 -0.1905 h -0.762 -0.762 v 0.1905 0.1905 h -1.143 -1.143 v -0.1905 -0.1905 h -0.5715 -0.5714999 v 0.1905 0.1905 h -0.1905 -0.1905 z m 1.9049999,0.381 v -0.1905 h -0.1905 -0.1905 v -0.1905 -0.1904998 h -0.1905 -0.1905 v -0.1905 -0.1905 h 0.381 0.381 v 0.1905 0.1905 h 0.1905 0.1905 v 0.3809998 0.381 h 0.5715 0.5715 v -0.381 -0.3809998 h -0.381 -0.381 v -0.1905 -0.1905 h -0.381 -0.381 v -0.381 -0.381 h -0.1905 -0.1905 v 0.1905 0.1905 h -0.1905 -0.1905 v -0.381 -0.381 h -0.1905 -0.1904999 v -0.1905 -0.1905 h -0.1905 -0.1905 v 0.381 0.381 h 0.1905 0.1905 v 0.762 0.7619998 h 0.3809999 0.381 v 0.1905 0.1905 h 0.1905 0.1905 z m 3.8099998,0 v -0.1905 h 0.1905 0.1905 v -0.1905 -0.1904998 h -0.1905 -0.1905 v 0.1904998 0.1905 h -0.1905 -0.1904998 v 0.1905 0.1905 h 0.1904998 0.1905 z M 9.1863332,9.9483332 v -0.381 h -0.381 -0.381 v 0.1905 0.1905 h 0.1905 0.1905 v 0.1904998 0.1905 h 0.1905 0.1905 z m -1.905,-0.9525 v -0.1905 h -0.1905 -0.1905 v 0.1905 0.1905 h 0.1905 0.1905 z m 1.905,-0.381 v -0.5715 h -0.5715 -0.5715 v 0.5715 0.5715 h 0.5715 0.5715 z m -0.762,0 v -0.1905 h 0.1905 0.1905 v 0.1905 0.1905 h -0.1905 -0.1905 z m -1.524,-0.381 v -0.1905 h -0.1905 -0.1905 v -0.381 -0.381 h -0.1905 -0.1905 v 0.1905 0.1905 h -0.1905 -0.1905 v 0.1905 0.1905 h 0.1905 0.1905 v 0.1905 0.1905 h 0.381 0.381 z m 0.762,0 v -0.1905 h -0.1905 -0.1905 v 0.1905 0.1905 h 0.1905 0.1905 z m -4.1909999,-0.9525 v -0.381 h 0.381 0.381 v 0.1905 0.1905 h -0.1905 -0.1905 v 0.1905 0.1905 h 0.5715 0.5715 v -0.1905 -0.1905 h 0.381 0.3809999 v -0.1905 -0.1905 h 0.762 0.762 v 0.1905 0.1905 h -0.1905 -0.1905 v 0.1905 0.1905 h 0.381 0.381 v -0.1905 -0.1905 h 0.1905 0.1905 v -0.1905 -0.1905 h -0.1905 -0.1905 v -0.1905 -0.1905 h -0.381 -0.381 v -0.1905 -0.1905 h 0.381 0.381 v -0.1905 -0.1905 h 0.1905 0.1905 v -0.1905 -0.1904999 h -0.1905 -0.1905 v 0.1904999 0.1905 h -0.5715 -0.5715 v 0.1905 0.1905 h -0.1905 -0.1905 v -0.5715 -0.5714999 h -0.1905 -0.1905 v -0.1905 -0.1905 h -0.1905 -0.1904999 v 0.1905 0.1905 h -0.1905 -0.1905 v 0.1905 0.1905 h -0.1905 -0.1905 v -0.1905 -0.1905 h -0.381 -0.381 v 0.1905 0.1905 h 0.381 0.381 v 0.1904999 0.1905 h 0.1905 0.1905 v 0.1905 0.1905 h 0.381 0.3809999 v 0.1905 0.1905 h -0.1905 -0.1904999 v 0.1905 0.1905 h -0.1905 -0.1905 v -0.1905 -0.1905 h -0.1905 -0.1905 v -0.1905 -0.1905 h -0.1905 -0.1905 v -0.1905 -0.1905 h -0.1905 -0.1905 v 0.1905 0.1905 h 0.1905 0.1905 v 0.1905 0.1905 h -0.381 -0.381 v -0.381 -0.381 h -0.1905 -0.1905 v 0.9525 0.9525 h 0.1905 0.1905 z m 0.762,-0.5715 v -0.1905 h 0.1905 0.1905 v 0.1905 0.1905 h -0.1905 -0.1905 z m 1.143,-1.3334999 v -0.381 h 0.1904999 0.1905 v 0.381 0.3809999 h -0.1905 -0.1904999 z m 1.9049999,-0.1905 v -0.1905 h -0.381 -0.381 v 0.1905 0.1905 h 0.381 0.381 z m 0.762,-0.381 v -0.1905 h -0.1905 -0.1905 v -0.381 -0.381 h -0.1905 -0.1905 v 0.1905 0.1905 h -0.1905 -0.1905 v -0.1905 -0.1905 h -0.1905 -0.1905 v 0.1905 0.1905 h -0.1905 -0.1905 v -0.1905 -0.1905 h -0.1905 -0.1905 v 0.1905 0.1905 h 0.1905 0.1905 v 0.1905 0.1905 h 0.1905 0.1905 v -0.1905 -0.1905 h 0.1905 0.1905 v 0.1905 0.1905 h 0.381 0.381 v 0.1905 0.1905 h 0.1905 0.1905 z m -2.6669999,-0.762 v -0.1905 h -0.1905 -0.1905 v 0.1905 0.1905 h 0.1905 0.1905 z m -3.81,3.2384999 v -0.762 h 0.1905 0.1905 v 0.762 0.762 h -0.1905 -0.1905 z m 8.3819999,-1.7145 V 5.3763333 h 0.1904998 0.1905 v 0.1904999 0.1905 h -0.1905 -0.1904998 z M 10.710333,5.1858333 v -0.1905 h -0.1905 -0.1905 v -0.1905 -0.1905 h 0.1905 0.1905 v 0.1905 0.1905 h 0.1905 0.1905 v 0.1905 0.1905 h -0.1905 -0.1905 z m -9.1439997,-2.286 v -1.3335 h 1.3335 1.3335 v 1.3335 1.3335 h -1.3335 -1.3335 z m 2.286,0 v -0.9525 h -0.9525 -0.9525 v 0.9525 0.9525 h 0.9525 0.9525 z m -1.524,0 v -0.5715 h 0.5715 0.5715 v 0.5715 0.5715 h -0.5715 -0.5715 z m 6.0959999,0 v -1.3335 h 1.3335 1.3334998 v 1.3335 1.3335 h -1.3334998 -1.3335 z m 2.2859998,0 v -0.9525 h -0.9524998 -0.9525 v 0.9525 0.9525 h 0.9525 0.9524998 z m -1.5239998,0 v -0.5715 h 0.5715 0.5714998 v 0.5715 0.5715 h -0.5714998 -0.5715 z m -4.5719999,-0.762 v -0.1905 h 0.1905 0.1905 v 0.1905 0.1905 h -0.1905 -0.1905 z m 0.762,-0.1905 v -0.381 h 0.1904999 0.1905 v 0.381 0.381 h -0.1905 -0.1904999 z"
       id="path1" /></g></svg>
