<?xml version="1.0" encoding="UTF-8" standalone="no"?>
<!-- Created with Inkscape (http://www.inkscape.org/) -->

<svg
   version="1.1"
   id="svg1"
   width="300"
   height="300"
   viewBox="0 0 300 300"
   sodipodi:docname="qr-code.svg"
   inkscape:version="1.4 (e7c3feb100, 2024-10-09)"
   xmlns:inkscape="http://www.inkscape.org/namespaces/inkscape"
   xmlns:sodipodi="http://sodipodi.sourceforge.net/DTD/sodipodi-0.dtd"
   xmlns="http://www.w3.org/2000/svg"
   xmlns:svg="http://www.w3.org/2000/svg">
  <defs
     id="defs1" />
  <sodipodi:namedview
     id="namedview1"
     pagecolor="#ffffff"
     bordercolor="#000000"
     borderopacity="0.25"
     inkscape:showpageshadow="2"
     inkscape:pageopacity="0.0"
     inkscape:pagecheckerboard="0"
     inkscape:deskcolor="#d1d1d1"
     inkscape:zoom="2.6933333"
     inkscape:cx="150.18564"
     inkscape:cy="150"
     inkscape:window-width="1904"
     inkscape:window-height="971"
     inkscape:window-x="8"
     inkscape:window-y="64"
     inkscape:window-maximized="0"
     inkscape:current-layer="g1" />
  <g
     inkscape:groupmode="layer"
     inkscape:label="Image"
     id="g1">
    <path
       style="fill:#22194d;fill-opacity:1"
       d="m 34,238 v -28 h 28 28 v 28 28 H 62 34 Z m 48,0 V 218 H 62 42 v 20 20 h 20 20 z m -32,0 v -12 h 12 12 v 12 12 H 62 50 Z m 48,20 v -8 h 8 8 v -12 -12 h 4 4 v -4 -4 h -8 -8 v -4 -4 h -4 -4 v -12 -12 h 16 16 v -4 -4 h -4 -4 v -4 -4 h -4 -4 v -4 -4 h -4 -4 v 8 8 h -8 -8 v 4 4 h -4 -4 v 4 4 h 4 4 v 4 4 h -4 -4 v -4 -4 h -4 -4 v 4 4 h -4 -4 v -4 -4 h -8 -8 v 4 4 h -8 -8 v -20 -20 h 4 4 v -4 -4 h -4 -4 v -4 -4 h 4 4 v -12 -12 h 4 4 v 8 8 h 4 4 v 8 8 h 4 4 v -16 -16 h -4 -4 v -4 -4 H 46 34 v -8 -8 h 8 8 v 4 4 h 4 4 v -4 -4 h 8 8 v 4 4 h 4 4 v -4 -4 h 4 4 v 4 4 h 8 8 v -4 -4 h -4 -4 v -8 -8 h 4 4 v -4 -4 h 4 4 v -8 -8 h -4 -4 v -4 -4 h 4 4 v 4 4 h 4 4 V 50 42 H 110 98 v -4 -4 h 16 16 v 4 4 h 4 4 v -4 -4 h 12 12 v 8 8 h -4 -4 v 4 4 h 4 4 v 8 8 h -4 -4 v 12 12 h 8 8 v 4 4 h -8 -8 v 8 8 h 4 4 v 4 4 h 12 12 v -8 -8 h -4 -4 v -4 -4 h 4 4 v -4 -4 h 4 4 v 4 4 h 4 4 v 4 4 h -4 -4 v 4 4 h 4 4 v 4 4 h -4 -4 v 16 16 h 12 12 v -4 -4 h -4 -4 v -4 -4 h 4 4 v -4 -4 h -4 -4 v -4 -4 h 4 4 v 4 4 h 4 4 v -8 -8 h -4 -4 v -4 -4 h -4 -4 v -8 -8 h 4 4 v 4 4 h 16 16 v 4 4 h -4 -4 v 8 8 h 4 4 v -4 -4 h 4 4 v 4 4 h 4 4 v 4 4 h -4 -4 v -4 -4 h -4 -4 v 8 8 h 4 4 v 4 4 h -4 -4 v 8 8 h 4 4 v 4 4 h -4 -4 v -4 -4 h -4 -4 v 4 4 h -8 -8 v -4 -4 h 8 8 v -16 -16 h -4 -4 v 4 4 h -8 -8 v 4 4 h 8 8 v 4 4 h -8 -8 v 12 12 h 20 20 v 4 4 h 4 4 v 8 8 h -4 -4 v -4 -4 h -4 -4 v 4 4 h -4 -4 v 4 4 h 4 4 v 4 4 h 4 4 v 8 8 h 4 4 v 4 4 h -4 -4 v 4 4 h -4 -4 v -4 -4 h -4 -4 v 8 8 h -28 -28 v -4 -4 h -8 -8 v -4 -4 h -4 -4 v 8 8 h -8 -8 v -4 -4 h 4 4 v -8 -8 h -4 -4 v 4 4 h -8 -8 v 4 4 h -4 -4 v 4 4 H 110 98 Z m 24,-4 v -4 h -4 -4 v 4 4 h 4 4 z m 80,-8 v -12 h -4 -4 v -4 -4 h -4 -4 v -8 -8 h 4 4 v -4 -4 h -4 -4 v -4 -4 h 12 12 v -8 -8 h -8 -8 v -8 -8 h -4 -4 v -12 -12 h -12 -12 v -4 -4 h -4 -4 v 4 4 h -8 -8 v -4 -4 h 4 4 v -12 -12 h -8 -8 V 94 82 h 4 4 v 8 8 h 4 4 v -8 -8 h -4 -4 v -4 -4 h -4 -4 v 4 4 h -4 -4 v -4 -4 h -4 -4 v 4 4 h -4 -4 v 4 4 h 4 4 v 8 8 h -4 -4 v 4 4 h -8 -8 v -4 -4 h -4 -4 v 4 4 h 4 4 v 4 4 h -4 -4 v 4 4 h 4 4 v -4 -4 h 8 8 v 4 4 h -4 -4 v 4 4 h 4 4 v 4 4 h -4 -4 v 4 4 h 12 12 v 4 4 h 4 4 v -4 -4 h 8 8 v -4 -4 h 16 16 v 4 4 h -4 -4 v 4 4 h 8 8 v 8 8 h -8 -8 v -4 -4 h -8 -8 v -4 -4 h 4 4 v -4 -4 h -4 -4 v 4 4 h -8 -8 v 4 4 h -4 -4 v 4 4 h 12 12 v 4 4 h -4 -4 v 24 24 h 4 4 v -8 -8 h 4 4 v 12 12 h 12 12 v -4 -4 h 4 4 v 12 12 h 4 4 z m -24,-16 v -4 h -4 -4 v -4 -4 h 4 4 v 4 4 h 4 4 v 4 4 h -4 -4 z m -24,-32 v -12 h 4 4 v -4 -4 h 4 4 v 8 8 h -4 -4 v 8 8 h -4 -4 z m 24,-8 v -4 h 4 4 v -4 -4 h 4 4 v 4 4 h -4 -4 v 4 4 h -4 -4 z m -64,-48 v -4 h -4 -4 v -4 -4 h 8 8 v 8 8 h -4 -4 z m 16,0 v -4 h 4 4 v 4 4 h -4 -4 z m -24,-24 v -4 h 4 4 v -4 -4 h 4 4 v 4 4 h -4 -4 v 4 4 h -4 -4 z m 24,0 v -4 h 4 4 v 4 4 h -4 -4 z M 114,86 v -4 h 4 4 v 4 4 h -4 -4 z m 120,160 v -12 h -4 -4 v 8 8 h -4 -4 v -4 -4 h -4 -4 v 4 4 h 4 4 v 4 4 h 8 8 z m -96,-8 v -4 h -8 -8 v 4 4 h 8 8 z m 112,-8 v -4 h -4 -4 v -4 -4 h -4 -4 v 4 4 h 4 4 v 4 4 h 4 4 z m -24,-16 v -12 h -12 -12 v 12 12 h 12 12 z m -16,0 v -4 h 4 4 v 4 4 h -4 -4 z m -72,0 v -4 h -4 -4 v -4 -4 h 4 4 v -8 -8 h -4 -4 v 8 8 h -8 -8 v 4 4 h 8 8 v 4 4 h 4 4 z m 104,-12 v -8 h -4 -4 v 8 8 h 4 4 z M 74,190 v -4 h 4 4 v -4 -4 h 4 4 v -4 -4 h 4 4 v -4 -4 h -4 -4 v -4 -4 h -4 -4 v -4 -4 h 4 4 v -4 -4 h -8 -8 v 8 8 h -4 -4 v 4 4 H 54 42 v 8 8 h 4 4 v 4 4 h 8 8 v 4 4 h 4 4 z m -8,-8 v -4 h -4 -4 v -4 -4 h 4 4 v -4 -4 h 4 4 v 4 4 h -4 -4 v 4 4 h 4 4 v 4 4 h -4 -4 z m 16,-16 v -4 h 4 4 v 4 4 h -4 -4 z m -8,-48 v -4 h -4 -4 v -4 -4 h -4 -4 v 4 4 h 4 4 v 4 4 h 4 4 z m 160,0 v -4 h -4 -4 v 4 4 h 4 4 z m -40,-8 v -4 h -4 -4 v 4 4 h 4 4 z M 154,70 v -4 h -4 -4 v -4 -4 h -4 -4 v -4 -4 h -4 -4 v 8 8 h 8 8 v 4 4 h 4 4 z M 98,234 v -8 h 4 4 v 8 8 h -4 -4 z M 258,106 v -8 h 4 4 v 8 8 h -4 -4 z M 34,62 V 34 H 62 90 V 62 90 H 62 34 Z m 48,0 V 42 H 62 42 V 62 82 H 62 82 Z M 50,62 V 50 H 62 74 V 62 74 H 62 50 Z m 112,24 v -4 h 4 4 v 4 4 h -4 -4 z m 16,0 v -4 h 4 4 v 4 4 h -4 -4 z m 16,-4 v -8 h 4 4 v 8 8 h -4 -4 z M 210,62 V 34 h 28 28 v 28 28 h -28 -28 z m 48,0 V 42 h -20 -20 v 20 20 h 20 20 z m -32,0 V 50 h 12 12 V 62 74 H 238 226 Z M 170,54 V 34 h 12 12 v 8 8 h 4 4 v 8 8 h -4 -4 v -8 -8 h -4 -4 v 4 4 h -4 -4 v 8 8 h -4 -4 z m 16,-8 v -4 h -4 -4 v 4 4 h 4 4 z"
       id="path1" />
  </g>
</svg>
