<?xml version="1.0" encoding="UTF-8" standalone="no"?>
<!-- Created with Inkscape (http://www.inkscape.org/) -->

<svg
   width="4in"
   height="3in"
   viewBox="0 0 101.6 76.2"
   version="1.1"
   id="svg1"
   xml:space="preserve"
   inkscape:version="1.3.2 (091e20ef0f, 2023-11-25)"
   sodipodi:docname="temple-invitation-card-background.svg"
   xmlns:inkscape="http://www.inkscape.org/namespaces/inkscape"
   xmlns:sodipodi="http://sodipodi.sourceforge.net/DTD/sodipodi-0.dtd"
   xmlns="http://www.w3.org/2000/svg"
   xmlns:svg="http://www.w3.org/2000/svg"><sodipodi:namedview
     id="namedview1"
     pagecolor="#ffffff"
     bordercolor="#000000"
     borderopacity="0.25"
     inkscape:showpageshadow="2"
     inkscape:pageopacity="0.0"
     inkscape:pagecheckerboard="0"
     inkscape:deskcolor="#d1d1d1"
     inkscape:document-units="in"
     inkscape:zoom="2.6656653"
     inkscape:cx="177.25406"
     inkscape:cy="138.23941"
     inkscape:window-width="1904"
     inkscape:window-height="971"
     inkscape:window-x="8"
     inkscape:window-y="64"
     inkscape:window-maximized="0"
     inkscape:current-layer="layer1" /><defs
     id="defs1" /><g
     inkscape:label="Layer 1"
     inkscape:groupmode="layer"
     id="layer1"><path
       style="fill:#0d2859;fill-opacity:1;stroke:none;stroke-width:0.629766"
       d="m 47.006536,10.973703 c 0,-2.6605891 -8.76e-4,-2.9963395 -0.0079,-2.9963395 -0.0067,0 -0.0079,-0.011499 -0.0079,-0.078081 v -0.078081 l 0.01686,-0.0013 0.01685,-0.0013 0.02578,-0.1045723 c 0.02383,-0.096654 0.02513,-0.105094 0.01723,-0.111474 -0.01699,-0.013718 -0.0061,-0.035941 0.01749,-0.035941 0.02776,0 0.04027,0.019184 0.02272,0.034842 -0.0085,0.00755 -0.0075,0.013604 0.01687,0.1136228 l 0.02581,0.1056419 h 0.01722 0.01722 v 0.042352 0.042352 h 0.01835 0.01835 V 7.6979025 c 0,-0.1831741 -8.76e-4,-0.2075198 -0.008,-0.2075198 -0.0068,0 -0.0078,-0.00923 -0.0066,-0.066703 l 0.0015,-0.066703 0.01441,-0.00136 c 0.0168,-0.00158 0.01362,0.00722 0.03795,-0.1047986 0.02109,-0.097159 0.02115,-0.097689 0.01058,-0.106223 -0.0044,-0.00351 -0.0079,-0.00908 -0.0079,-0.012405 0,-0.00796 0.01886,-0.022993 0.02885,-0.022993 0.01019,0 0.02885,0.015093 0.02885,0.023332 0,0.00351 -0.0043,0.00935 -0.0095,0.012959 -0.0091,0.0063 -0.0086,0.01056 0.01301,0.1068953 0.01238,0.055182 0.02255,0.1006817 0.0226,0.1011095 6e-5,4.279e-4 0.0066,0.00136 0.01452,0.0021 0.0142,0.0013 0.01445,0.00186 0.01596,0.034164 0.0012,0.025364 0.0033,0.032822 0.0092,0.032822 0.0066,0 0.0076,-0.033264 0.0076,-0.2456364 0,-0.1609338 -0.0018,-0.2456361 -0.0053,-0.2456361 -0.0032,0 -0.0053,-0.021883 -0.0053,-0.057174 V 6.816955 h 0.01234 c 0.01181,0 0.01317,-0.00334 0.03141,-0.076916 0.01376,-0.055538 0.01751,-0.078427 0.01348,-0.082352 -0.01,-0.00968 -0.0036,-0.024962 0.01038,-0.024962 0.01691,0 0.02621,0.012065 0.01775,0.02301 -0.0052,0.0067 -0.0029,0.022262 0.01261,0.084717 0.01813,0.073166 0.0195,0.076501 0.03131,0.076501 0.01221,0 0.01234,4.935e-4 0.01234,0.046585 v 0.046586 h 0.01573 0.01573 V 6.855418 c 0,-0.049579 0.01106,-0.1145491 0.118079,-0.6934991 0.06495,-0.3513376 0.119416,-0.6440362 0.121049,-0.6504422 0.0021,-0.00828 0.0061,-0.011646 0.01407,-0.011646 0.01028,0 0.0099,-0.00102 -0.0051,-0.013762 -0.0089,-0.00757 -0.01877,-0.017928 -0.02201,-0.023015 -0.0082,-0.013005 -0.0073,-0.046104 0.0018,-0.060211 0.0098,-0.015347 0.04141,-0.037678 0.05806,-0.04105 0.01254,-0.00254 0.01302,-0.0039 0.01302,-0.037384 0,-0.033462 -5.63e-4,-0.03508 -0.01528,-0.043863 -0.02741,-0.01636 -0.02599,-0.051299 0.0026,-0.066478 0.01142,-0.00604 0.01258,-0.00958 0.01258,-0.038323 v -0.031668 h 0.02098 0.02098 v 0.034017 c 0,0.026688 0.0018,0.034548 0.0081,0.036512 0.0107,0.00334 0.02341,0.023711 0.02341,0.037587 0,0.00671 -0.0062,0.016162 -0.01573,0.02383 -0.01491,0.012042 -0.01573,0.014504 -0.01573,0.047326 v 0.034623 l 0.0239,0.010238 c 0.03088,0.013225 0.04953,0.037915 0.04953,0.06557 0,0.023032 -0.0053,0.033066 -0.02788,0.05229 -0.01493,0.012738 -0.01531,0.013762 -0.0051,0.013762 0.0079,0 0.01197,0.00339 0.01413,0.011646 0.0017,0.00641 0.05731,0.30514 0.123665,0.6638536 0.0938,0.5071367 0.12064,0.661392 0.120646,0.6934997 9e-6,0.041221 3.2e-5,0.041294 0.01312,0.041294 h 0.01311 V 6.86354 6.816955 h 0.01311 c 0.0072,0 0.01311,-6.225e-4 0.01311,-0.00142 0,-7.923e-4 0.0083,-0.034599 0.01848,-0.075173 0.01547,-0.061711 0.01743,-0.075376 0.01204,-0.083577 -0.0078,-0.011895 -7.71e-4,-0.023429 0.01554,-0.025392 0.01512,-0.00181 0.02397,0.01211 0.01458,0.022942 -0.006,0.00694 -0.0044,0.019162 0.01191,0.085357 0.01792,0.073082 0.01959,0.077246 0.03089,0.077246 0.01184,0 0.01194,5.026e-4 0.01194,0.057174 0,0.03529 -0.002,0.057174 -0.0053,0.057174 -0.0034,0 -0.0053,0.084702 -0.0053,0.2456362 0,0.2123702 0.0011,0.2456363 0.0076,0.2456363 0.0059,0 0.008,-0.00746 0.0092,-0.032822 0.0016,-0.032302 0.0018,-0.032845 0.01594,-0.034158 0.01708,-0.00158 0.01418,0.00649 0.0398,-0.1108917 0.01975,-0.090485 0.01981,-0.091124 0.0098,-0.1021933 -0.008,-0.00886 -0.0088,-0.012914 -0.0043,-0.01983 0.0082,-0.012376 0.0249,-0.015455 0.04012,-0.0074 0.01502,0.00795 0.01608,0.015704 0.0044,0.031775 -0.0081,0.011013 -0.0074,0.016411 0.01067,0.098061 0.01056,0.047525 0.02048,0.091648 0.02206,0.098054 0.0023,0.00952 0.0057,0.011646 0.01817,0.011646 h 0.01532 v 0.067762 c 0,0.05741 -0.0012,0.067762 -0.0079,0.067762 -0.0068,0 -0.0079,0.025879 -0.0079,0.2075198 v 0.2075205 h 0.01835 0.01835 v -0.042352 -0.042352 l 0.01705,-1.08e-5 0.01705,-1.07e-5 0.02674,-0.1058784 c 0.02175,-0.086122 0.02546,-0.1067385 0.01987,-0.1104848 -0.01215,-0.00814 -0.01402,-0.020899 -0.0044,-0.029557 0.01026,-0.00916 0.03361,-0.01082 0.04319,-0.00311 0.009,0.00723 0.0078,0.022755 -0.0023,0.030932 -0.0081,0.00647 -0.0068,0.014147 0.01643,0.1072388 0.01379,0.055147 0.02619,0.1026488 0.02756,0.1055604 0.0014,0.00289 0.0093,0.00532 0.01766,0.00532 h 0.01517 v 0.07835 c 0,0.066821 -0.0012,0.07835 -0.0079,0.07835 -0.0069,0 -0.0079,0.084702 -0.0079,0.7369091 v 0.7369092 h 0.1074 0.107399 l 0.0014,-0.075174 0.0014,-0.075174 0.09834,-0.00113 0.09834,-0.00113 v 0.044565 0.044558 h 0.07868 0.07867 v -0.07835 -0.07835 h 0.09965 0.09965 v 0.048703 0.048703 h 0.107521 0.10752 V 8.5237231 c 0,-0.8018472 -3.7e-5,-0.8046711 -0.01049,-0.8046711 -0.01018,0 -0.01049,-0.00283 -0.01049,-0.097407 V 7.524238 h 0.02055 c 0.02027,0 0.02061,-2.626e-4 0.02579,-0.020118 0.0029,-0.011063 0.01753,-0.069912 0.03254,-0.1307725 l 0.0273,-0.1106552 -0.01113,-0.00899 c -0.0061,-0.00492 -0.01113,-0.013457 -0.01113,-0.018918 0,-0.023406 0.04494,-0.034481 0.06376,-0.015715 0.01267,0.012626 0.0122,0.018567 -0.0025,0.032375 l -0.01218,0.011437 0.03207,0.1296187 0.03207,0.1296186 0.02207,0.0013 0.02207,0.0013 v 0.052697 0.052697 h 0.0236 0.0236 V 7.373498 c 0,-0.2530593 -1.45e-4,-0.2566517 -0.0105,-0.2588361 -0.01004,-0.0021 -0.01049,-0.00578 -0.01049,-0.084306 v -0.08209 h 0.01835 c 0.0101,0 0.01848,-4.765e-4 0.01862,-0.00107 1.43e-4,-5.66e-4 0.0127,-0.056814 0.02791,-0.124959 0.02667,-0.119446 0.02732,-0.1241515 0.0181,-0.1308863 -0.01186,-0.00866 -0.0124,-0.028188 -0.0011,-0.037361 0.01358,-0.010962 0.04442,-0.0069 0.05413,0.00711 0.0074,0.010645 0.0071,0.012359 -0.0046,0.025007 l -0.01243,0.013582 0.01964,0.089339 c 0.01081,0.049138 0.02321,0.1050624 0.02756,0.1242794 l 0.0079,0.034939 h 0.0176 0.0176 l 0.0015,0.041243 c 0.0012,0.035341 0.0028,0.041447 0.01068,0.042663 0.0087,0.00136 0.0092,-0.015398 0.0092,-0.3038202 0,-0.2006691 -0.0018,-0.3052385 -0.0053,-0.3052385 -0.0033,0 -0.0053,-0.026117 -0.0053,-0.069879 v -0.069879 h 0.01453 0.01453 l 0.02399,-0.097436 c 0.01984,-0.080609 0.02276,-0.098252 0.01693,-0.102161 -0.01161,-0.00778 -0.0086,-0.024492 0.0054,-0.029625 0.02558,-0.00941 0.04603,0.012778 0.02749,0.02984 -0.0062,0.00575 -0.0039,0.020226 0.0164,0.1030353 l 0.02366,0.096349 h 0.01508 0.01508 v 0.057174 0.057174 h 0.01835 0.01835 l -1.33e-4,-0.058233 c -1.26e-4,-0.05487 0.0086,-0.1052888 0.150606,-0.8724324 L 50.705437,4.65282 h 0.01501 0.01501 l -0.01639,-0.011137 c -0.03895,-0.026467 -0.05368,-0.080545 -0.03214,-0.1180318 0.01205,-0.020984 0.03883,-0.041928 0.06477,-0.050666 0.01962,-0.00661 0.01967,-0.00669 0.01967,-0.031979 v -0.025353 h -0.01835 c -0.01108,0 -0.01844,-0.0021 -0.01855,-0.00532 -1.11e-4,-0.00289 -0.0034,-0.034616 -0.0074,-0.070461 -0.0071,-0.064334 -0.01014,-0.072235 -0.02779,-0.07241 -0.0051,-4.98e-5 -0.0066,-0.024713 -0.0066,-0.109005 V 4.0495179 l -0.03248,-0.026467 -0.03248,-0.026467 0.0092,-0.056234 0.0092,-0.056234 -0.02153,-0.01559 c -0.01184,-0.00858 -0.02908,-0.016898 -0.03831,-0.018499 -0.0092,-0.00158 -0.01852,-0.00374 -0.02067,-0.00475 -0.0049,-0.00232 0.01557,-0.035273 0.02193,-0.035273 0.0026,0 0.0097,0.0065 0.01578,0.014459 0.0156,0.020384 0.137794,0.1117445 0.140576,0.1051082 0.0066,-0.015636 0.04378,-0.02426 0.06274,-0.014533 0.01221,0.00626 0.02311,0.035867 0.02619,0.071154 l 0.0031,0.035567 0.02151,6.46e-5 c 0.01183,3.56e-5 0.02414,0.00147 0.02734,0.00317 0.01108,0.00592 0.02306,0.0304 0.04946,0.101097 0.02505,0.067069 0.03013,0.094403 0.01814,0.097557 -0.0029,7.357e-4 -0.01977,-0.022919 -0.03753,-0.052612 l -0.03229,-0.053993 -4.94e-4,0.074686 -4.95e-4,0.074686 -0.01311,0.00694 c -0.01288,0.00682 -0.01311,0.00792 -0.01311,0.062346 0,0.054055 -3.2e-4,0.055611 -0.01311,0.063736 -0.01172,0.00745 -0.01311,0.01142 -0.01311,0.03761 v 0.02928 l 0.01967,0.00663 c 0.01082,0.00362 0.02763,0.012722 0.03735,0.020174 0.0511,0.039149 0.04981,0.1096891 -0.0026,0.1469059 l -0.01799,0.012755 h 0.01592 c 0.0101,0 0.01592,0.00215 0.01592,0.0059 0,0.00322 0.06726,0.3688449 0.14948,0.8124509 0.141756,0.76488 0.14948,0.8096566 0.14948,0.8665391 v 0.059982 h 0.01835 0.01835 v -0.057174 -0.057174 h 0.01497 0.01497 l 0.02391,-0.096348 c 0.02159,-0.087017 0.02313,-0.09705 0.01588,-0.1035899 -0.01788,-0.016134 0.0059,-0.039161 0.02973,-0.028844 0.01201,0.00521 0.01505,0.027848 0.0041,0.030797 -0.0049,0.00136 -6.78e-4,0.025799 0.01719,0.098819 l 0.02374,0.09705 0.01691,0.0013 0.01691,0.0013 v 0.069611 c 0,0.059053 -0.0012,0.06961 -0.0079,0.06961 -0.0069,0 -0.0079,0.036705 -0.0079,0.3049284 0,0.3021044 9.7e-5,0.3049277 0.0105,0.3049277 0.0098,0 0.01049,-0.00283 0.01049,-0.042352 v -0.042352 h 0.01792 c 0.02109,0 0.01654,0.012869 0.05067,-0.1433288 0.01796,-0.082163 0.02125,-0.1045197 0.01627,-0.1101125 -0.01665,-0.018663 -0.0184,-0.025438 -0.0094,-0.03649 0.01028,-0.012659 0.0393,-0.014918 0.05269,-0.00413 0.01045,0.00844 0.01067,0.028798 3.75e-4,0.035697 -0.01098,0.00736 -0.01069,0.00971 0.01574,0.1309718 0.0308,0.1413102 0.02562,0.1273702 0.0473,0.1273702 h 0.01826 v 0.08209 c 0,0.078529 -4.56e-4,0.082187 -0.01049,0.084306 -0.01035,0.00221 -0.01049,0.00578 -0.01049,0.2588361 v 0.2566205 h 0.0236 0.0236 v -0.052697 -0.052697 l 0.02207,-0.0013 0.02207,-0.0013 0.0322,-0.1301562 c 0.03119,-0.1260569 0.0319,-0.1303798 0.02251,-0.1372386 -0.01189,-0.00869 -0.01281,-0.032296 -0.0016,-0.03984 0.01175,-0.00787 0.03721,-0.00671 0.04948,0.00226 0.01386,0.01013 0.01371,0.029551 -3.09e-4,0.03748 l -0.01087,0.00614 0.03261,0.1317351 0.03261,0.1317351 h 0.02021 0.02021 v 0.097407 c 0,0.094584 -3.04e-4,0.097407 -0.01049,0.097407 -0.01046,0 -0.0105,0.00283 -0.0105,0.804671 v 0.8046706 h 0.10752 0.107521 v -0.048703 -0.048703 h 0.09965 0.09965 v 0.07835 0.07835 h 0.07849 0.07849 l 0.0015,-0.043412 0.0015,-0.043412 0.09834,-0.00113 0.09834,-0.00113 v 0.076325 0.076326 h 0.107521 0.10752 V 8.714229 c 0,-0.6522068 -8.76e-4,-0.7369091 -0.0079,-0.7369091 -0.0067,0 -0.0079,-0.011499 -0.0079,-0.078081 v -0.078082 l 0.01685,-0.0013 0.01685,-0.0013 0.02578,-0.1045723 c 0.02383,-0.096654 0.02513,-0.105094 0.01723,-0.111474 -0.01005,-0.00812 -0.01119,-0.023649 -0.0023,-0.030858 0.0089,-0.0072 0.0334,-0.0063 0.04315,0.00158 0.01069,0.00863 0.01045,0.018234 -7.01e-4,0.028188 -0.0085,0.00755 -0.0075,0.013604 0.01687,0.1136228 l 0.02581,0.1056418 h 0.01722 0.01722 v 0.042352 0.042352 h 0.01835 0.01835 V 7.6978703 c 0,-0.1831742 -8.76e-4,-0.2075199 -0.008,-0.2075199 -0.0068,0 -0.0078,-0.00923 -0.0066,-0.066703 l 0.0015,-0.066703 0.01411,-0.0013 c 0.01609,-0.00153 0.01397,0.00464 0.04078,-0.1180872 0.01841,-0.08424 0.01843,-0.084567 0.0081,-0.092957 -0.01068,-0.00862 -0.0099,-0.016824 0.0026,-0.026926 0.01327,-0.010718 0.02344,-0.010718 0.03672,0 0.01302,0.010509 0.01333,0.019298 9.64e-4,0.02782 -0.0091,0.0063 -0.0086,0.01056 0.01301,0.1068954 0.01238,0.055182 0.02255,0.1006817 0.0226,0.1011095 5.9e-5,4.278e-4 0.0066,0.00136 0.01452,0.0021 0.0142,0.0013 0.01445,0.00186 0.01596,0.034164 0.0012,0.025364 0.0033,0.032822 0.0092,0.032822 0.0066,0 0.0076,-0.033264 0.0076,-0.2456363 0,-0.1609339 -0.0018,-0.2456362 -0.0053,-0.2456362 -0.0032,0 -0.0053,-0.021883 -0.0053,-0.057174 0,-0.05699 3.9e-5,-0.057174 0.01218,-0.057174 0.01161,0 0.01304,-0.00362 0.03089,-0.07729 0.01239,-0.051186 0.017,-0.079 0.01365,-0.082352 -0.0028,-0.00278 -0.0043,-0.00946 -0.0033,-0.014821 0.0012,-0.00709 0.0052,-0.00976 0.01425,-0.00976 0.01691,0 0.02621,0.012065 0.01775,0.02301 -0.0052,0.0067 -0.0029,0.022263 0.01261,0.084717 0.01813,0.073166 0.0195,0.076502 0.03131,0.076502 0.01221,0 0.01234,4.934e-4 0.01234,0.046585 v 0.046585 h 0.01311 c 0.01307,0 0.01311,-1.171e-4 0.01311,-0.040598 0,-0.031215 0.0279,-0.1915416 0.120669,-0.6934992 0.06637,-0.3590955 0.12202,-0.6581414 0.123672,-0.6645474 0.0021,-0.00827 0.0062,-0.011646 0.0141,-0.011646 0.01028,0 0.0099,-0.00102 -0.0051,-0.013762 -0.0089,-0.00757 -0.01877,-0.017928 -0.02201,-0.023015 -0.0096,-0.015093 -0.0071,-0.04719 0.0051,-0.064653 0.01068,-0.015347 0.04718,-0.038329 0.06088,-0.038329 0.0051,0 0.0068,-0.00914 0.0068,-0.035199 0,-0.033971 -5.34e-4,-0.035522 -0.01528,-0.044322 -0.02741,-0.01636 -0.02599,-0.051299 0.0026,-0.066478 0.01142,-0.00604 0.01258,-0.00958 0.01258,-0.038323 V 5.144101 h 0.01835 0.01835 v 0.031668 c 0,0.028748 0.0012,0.032279 0.01258,0.038323 0.02868,0.015178 0.03011,0.050117 0.0026,0.066478 -0.01459,0.00871 -0.01528,0.010605 -0.01528,0.041939 v 0.032822 l 0.02661,0.011697 c 0.0337,0.01481 0.05205,0.038357 0.05205,0.066773 0,0.023032 -0.0053,0.033066 -0.02788,0.05229 -0.01493,0.012738 -0.0153,0.013762 -0.0051,0.013762 0.0079,0 0.01197,0.00339 0.0141,0.011646 0.0017,0.00641 0.05731,0.3054519 0.123672,0.6645475 0.09277,0.5019575 0.120669,0.6622861 0.120669,0.6934991 0,0.040479 3.7e-5,0.040598 0.01311,0.040598 h 0.01312 v -0.046585 -0.046585 h 0.01311 c 0.0072,0 0.01311,-6.225e-4 0.01311,-0.00142 0,-7.924e-4 0.0083,-0.034599 0.01848,-0.075173 0.01547,-0.06171 0.01743,-0.075375 0.01204,-0.083577 -0.0078,-0.011895 -7.71e-4,-0.023429 0.01554,-0.025392 0.01507,-0.00181 0.02397,0.012105 0.01463,0.022897 -0.006,0.00687 -0.0042,0.019456 0.01168,0.085357 0.01778,0.073711 0.01921,0.07729 0.03082,0.07729 0.01214,0 0.01218,1.839e-4 0.01218,0.057174 0,0.03529 -0.002,0.057174 -0.0053,0.057174 -0.0034,0 -0.0053,0.084702 -0.0053,0.2456362 0,0.2123702 0.0011,0.2456363 0.0076,0.2456363 0.0059,0 0.008,-0.00746 0.0092,-0.032822 0.0016,-0.032307 0.0018,-0.032845 0.01596,-0.034164 0.008,-7.357e-4 0.01457,-0.0017 0.01474,-0.0021 1.75e-4,-4.278e-4 0.01032,-0.045566 0.02256,-0.1003025 0.02209,-0.098853 0.02217,-0.0996 0.01227,-0.1106637 -0.0079,-0.00885 -0.0088,-0.012926 -0.0042,-0.01983 0.0082,-0.012376 0.0249,-0.015454 0.04012,-0.0074 0.01501,0.00794 0.01608,0.015704 0.0044,0.03173 -0.008,0.010922 -0.0075,0.016128 0.0081,0.087473 0.02794,0.1282821 0.02511,0.1203305 0.0428,0.1203305 h 0.01537 v 0.067762 c 0,0.05741 -0.0012,0.067762 -0.0079,0.067762 -0.0068,0 -0.0079,0.025879 -0.0079,0.2075199 v 0.2075201 h 0.01835 0.01835 v -0.042352 -0.042352 l 0.01705,-5e-6 0.01705,-4.6e-6 0.02652,-0.1059582 c 0.02547,-0.1017676 0.02615,-0.1062321 0.01705,-0.112882 -0.01166,-0.00852 -0.01215,-0.01979 -0.0012,-0.028601 0.0098,-0.00788 0.03425,-0.00877 0.04315,-0.00158 0.0089,0.00721 0.0078,0.02275 -0.0023,0.030858 -0.0079,0.00638 -0.0066,0.014821 0.01723,0.111474 l 0.02578,0.1045724 0.01685,0.0013 0.01686,0.0013 v 0.078081 c 0,0.066582 -0.0012,0.078081 -0.0079,0.078081 -0.007,0 -0.0079,0.3357504 -0.0079,2.996341 v 2.996335 H 50.80031 47.005621 Z m 1.069931,2.216022 c -1.7e-5,-0.142902 -0.0023,-0.266092 -0.0051,-0.280002 -0.01032,-0.05086 -0.04711,-0.09113 -0.1039,-0.113708 -0.03177,-0.01262 -0.03943,-0.01392 -0.08244,-0.01392 -0.043,0 -0.05069,0.0013 -0.08237,0.0139 -0.04252,0.0169 -0.07742,0.0467 -0.09436,0.08054 l -0.01208,0.02415 -0.0015,0.272106 -0.0015,0.272107 h 0.191623 0.191622 z m 1.426554,-0.0487 c -1.01e-4,-0.337463 -1.44e-4,-0.33795 -0.03423,-0.393884 -0.03453,-0.05666 -0.0985,-0.100433 -0.175475,-0.120077 -0.04447,-0.01134 -0.12083,-0.01225 -0.165214,-0.0019 -0.09613,0.02231 -0.172386,0.08301 -0.2052,0.163331 -0.0088,0.02149 -0.0097,0.04772 -0.01124,0.339867 l -0.0018,0.316575 h 0.296585 0.296585 z m 1.593356,-0.36422 -0.0014,-0.668089 -0.01125,-0.02646 c -0.06225,-0.146463 -0.284984,-0.188676 -0.418317,-0.07928 -0.01491,0.01223 -0.03349,0.03278 -0.04131,0.04566 -0.03169,0.05226 -0.03001,0.01145 -0.03001,0.734361 v 0.661905 h 0.251881 0.251881 z m 1.59441,0.351514 c -0.0016,-0.292153 -0.0025,-0.318371 -0.01123,-0.339866 -0.03296,-0.08068 -0.108368,-0.140712 -0.205067,-0.163255 -0.04133,-0.0096 -0.116151,-0.0097 -0.15761,-4e-5 -0.09595,0.02226 -0.172152,0.08292 -0.205101,0.163295 -0.0088,0.02154 -0.0097,0.0472 -0.01121,0.339866 l -0.0017,0.316575 h 0.296804 0.296804 z m 1.216916,0.04446 -0.0015,-0.272106 -0.01208,-0.02415 c -0.01694,-0.03385 -0.05184,-0.06364 -0.09436,-0.08054 -0.03167,-0.01259 -0.03939,-0.0139 -0.08227,-0.0139 -0.04039,0 -0.05171,0.0016 -0.0774,0.01139 -0.03621,0.0137 -0.07614,0.04483 -0.09245,0.0721 -0.0066,0.01097 -0.0141,0.03194 -0.01672,0.04658 -0.0026,0.01464 -0.0048,0.140505 -0.0049,0.279681 l -1.06e-4,0.253047 h 0.191622 0.191622 z m -5.833828,-0.941254 v -0.271046 l -0.01218,-0.02434 c -0.01607,-0.03213 -0.05641,-0.06737 -0.09435,-0.08241 -0.02663,-0.01056 -0.03549,-0.01183 -0.0823,-0.01183 -0.04269,0 -0.05701,0.0017 -0.07697,0.0092 -0.03086,0.01153 -0.06917,0.03981 -0.08681,0.0641 -0.02668,0.03677 -0.02749,0.04634 -0.02759,0.328083 l -8.1e-5,0.261571 0.190128,-0.0011 0.190127,-0.0011 z m 5.83386,-10e-4 -0.0016,-0.274223 -0.01508,-0.02636 c -0.01771,-0.03095 -0.0592,-0.06484 -0.09637,-0.0787 -0.0204,-0.0076 -0.03444,-0.0093 -0.07736,-0.0093 -0.04978,0 -0.05414,7.07e-4 -0.08555,0.0145 -0.04081,0.01787 -0.07524,0.04806 -0.09113,0.07994 l -0.01204,0.02415 -0.0016,0.266323 c -8.76e-4,0.146478 -4.07e-4,0.268925 0.0011,0.272106 0.0023,0.0047 0.03689,0.0058 0.191944,0.0058 h 0.189198 z m -4.619305,0.05151 c 0.05268,-0.01243 0.102137,-0.04489 0.132178,-0.08671 0.04265,-0.05939 0.04143,-0.147114 -0.003,-0.208219 -0.01897,-0.02614 -0.067,-0.06117 -0.102063,-0.07444 -0.02703,-0.01023 -0.03616,-0.01142 -0.08787,-0.01142 -0.05316,0 -0.06017,9.6e-4 -0.08916,0.01242 -0.038,0.015 -0.08571,0.0523 -0.103826,0.08116 -0.02376,0.03786 -0.03134,0.06678 -0.02868,0.109258 0.0029,0.04609 0.01593,0.07639 0.04795,0.111512 0.05459,0.05989 0.148924,0.08662 0.234406,0.06644 z m 3.169819,-0.0074 c 0.04191,-0.01554 0.07127,-0.03578 0.09691,-0.06678 0.08379,-0.101321 0.03947,-0.242319 -0.09262,-0.29468 -0.02752,-0.01091 -0.03516,-0.01195 -0.08784,-0.01195 -0.0517,0 -0.06082,0.0012 -0.08787,0.01142 -0.03506,0.01327 -0.08309,0.0483 -0.102064,0.07444 -0.04426,0.06098 -0.04557,0.148825 -0.0031,0.207955 0.02919,0.04066 0.07867,0.07362 0.130499,0.08695 0.04058,0.01043 0.107159,0.0071 0.146098,-0.0074 z M 48.075183,11.26067 c -0.0013,-0.183006 -0.0037,-0.261579 -0.0081,-0.272164 -0.02018,-0.04848 -0.06799,-0.08697 -0.12626,-0.101655 -0.04217,-0.01062 -0.06967,-0.0106 -0.111661,8.9e-5 -0.04242,0.0108 -0.07813,0.0321 -0.101266,0.06034 -0.03399,0.04153 -0.03434,0.0448 -0.03434,0.321681 v 0.248982 h 0.191701 0.191702 z m 1.34289,-0.0022 -0.0015,-0.259401 -0.01208,-0.02415 c -0.0331,-0.06614 -0.126237,-0.107363 -0.209847,-0.09288 -0.0603,0.01044 -0.10792,0.0391 -0.135665,0.08164 l -0.0148,0.02268 -0.0015,0.265753 -0.0015,0.265754 h 0.189159 0.189159 z m 3.148023,0.02753 c -2.2e-5,-0.12753 -0.0023,-0.247483 -0.005,-0.266561 -0.0074,-0.05177 -0.03188,-0.0862 -0.08049,-0.113066 -0.09914,-0.0548 -0.237754,-0.02118 -0.282657,0.06855 l -0.01208,0.02415 -0.0015,0.2594 -0.0015,0.259401 h 0.191629 0.19163 z m 1.342735,-0.0171 c 0,-0.211212 -0.0012,-0.252805 -0.0081,-0.274182 -0.02676,-0.08298 -0.126511,-0.13129 -0.227798,-0.110338 -0.07729,0.01598 -0.128538,0.06158 -0.141451,0.125835 -0.0033,0.01628 -0.0054,0.122255 -0.0054,0.267323 l -4e-5,0.240343 h 0.19144 0.191438 z m -2.81244,-0.465694 -0.0015,-0.668089 -0.01221,-0.02752 c -0.0159,-0.03585 -0.03805,-0.06349 -0.06875,-0.08577 -0.07921,-0.057496 -0.183413,-0.069376 -0.281599,-0.032112 -0.03488,0.01324 -0.08647,0.053752 -0.105873,0.083159 -0.03441,0.05214 -0.03245,0.0076 -0.03245,0.736528 v 0.661905 h 0.251896 0.251896 z m -3.019999,-0.419275 c -5.8e-5,-0.125201 -0.0023,-0.239623 -0.0049,-0.254271 -0.0093,-0.05211 -0.04604,-0.0931 -0.104017,-0.116146 -0.03177,-0.01262 -0.03943,-0.01392 -0.08244,-0.01392 -0.043,0 -0.05069,0.00128 -0.08237,0.013896 -0.04252,0.0169 -0.07742,0.0467 -0.09436,0.08054 -0.01207,0.02411 -0.01208,0.02448 -0.0136,0.270843 l -0.0016,0.246695 h 0.191639 0.191639 z m 5.831328,-0.01906 c -0.0016,-0.246364 -0.0016,-0.246728 -0.0136,-0.270843 -0.01694,-0.03385 -0.05185,-0.06364 -0.09436,-0.08054 -0.03167,-0.01259 -0.0394,-0.013896 -0.08227,-0.013896 -0.04039,0 -0.05171,0.0016 -0.0774,0.011392 -0.05761,0.0218 -0.0988,0.06571 -0.109052,0.116242 -0.0028,0.01369 -0.0051,0.127933 -0.0051,0.254591 l -3.1e-5,0.229755 h 0.191639 0.191638 z m -4.61929,0.08327 c 0.09793,-0.02312 0.164287,-0.100364 0.163402,-0.190201 -5.86e-4,-0.05942 -0.02517,-0.10599 -0.0767,-0.145346 -0.124511,-0.09509 -0.31234,-0.04634 -0.362545,0.09407 -0.01208,0.0338 -0.0086,0.09272 0.0075,0.126335 0.0436,0.09103 0.159602,0.14081 0.268318,0.11514 z m 3.174551,-0.0093 c 0.04101,-0.01549 0.08243,-0.0472 0.104294,-0.07984 0.05395,-0.08053 0.03373,-0.187848 -0.0466,-0.247125 -0.147274,-0.108687 -0.368323,-0.02146 -0.370042,0.146028 -7.71e-4,0.07189 0.03873,0.133305 0.109069,0.169745 0.04,0.02073 0.07113,0.02727 0.122953,0.02588 0.03734,-9.6e-4 0.05053,-0.0034 0.08033,-0.01468 z M 48.076458,9.3802435 c -2.4e-5,-0.1355503 -0.0023,-0.2384947 -0.0054,-0.2544765 -0.01081,-0.05381 -0.0458,-0.092994 -0.103526,-0.1159401 -0.03177,-0.012626 -0.03941,-0.013914 -0.08233,-0.0139 -0.03802,1.77e-5 -0.05238,0.00191 -0.07312,0.00961 -0.0559,0.020769 -0.09532,0.058154 -0.110299,0.1045894 -0.0068,0.021299 -0.0081,0.06174 -0.0081,0.2614768 v 0.2362762 h 0.191438 0.191439 z M 53.90772,9.3611865 C 53.90612,9.1148236 53.90612,9.1144586 53.89412,9.090344 53.87718,9.056489 53.84227,9.026701 53.79974,9.009802 53.76806,8.997218 53.76033,8.995909 53.71748,8.995909 c -0.04084,0 -0.05126,0.00156 -0.0763,0.011502 -0.06159,0.024426 -0.09895,0.06457 -0.109646,0.1178104 -0.0033,0.016659 -0.0055,0.1165473 -0.0055,0.2550233 l -4e-5,0.227637 h 0.191638 0.191639 z M 51.096382,9.1229615 C 51.097258,8.8513348 51.09586,8.6776178 51.092527,8.6549822 51.073184,8.523418 50.91215,8.4433918 50.756168,8.48783 c -0.0508,0.01447 -0.09582,0.045618 -0.127391,0.088139 -0.03572,0.048107 -0.03473,0.032879 -0.03473,0.5319883 v 0.4491849 l 0.250443,-0.00106 0.250445,-0.00106 z"
       id="path2" /><path
       id="rect3"
       style="color:#000000;fill:#0d2859;-inkscape-stroke:none"
       d="M 5.5877726,5.5877726 V 70.611194 H 96.011711 V 5.5877726 H 54.753552 l 0.56534,1.5234212 H 94.488289 V 69.087773 H 7.1111938 V 7.1111938 H 46.282141 l 0.565336,-1.523421 z"
       sodipodi:nodetypes="ccccccccccccc" /></g></svg>
