<?xml version="1.0" encoding="UTF-8" standalone="no"?>
<!-- Created with Inkscape (http://www.inkscape.org/) -->

<svg
   width="48"
   height="48"
   viewBox="0 0 12.7 12.7"
   version="1.1"
   id="svg1"
   xml:space="preserve"
   inkscape:version="1.3.2 (091e20ef0f, 2023-11-25)"
   sodipodi:docname="initial.svg"
   inkscape:export-filename="symbol-large.png"
   inkscape:export-xdpi="1536"
   inkscape:export-ydpi="1536"
   xmlns:inkscape="http://www.inkscape.org/namespaces/inkscape"
   xmlns:sodipodi="http://sodipodi.sourceforge.net/DTD/sodipodi-0.dtd"
   xmlns="http://www.w3.org/2000/svg"
   xmlns:svg="http://www.w3.org/2000/svg"><sodipodi:namedview
     id="namedview1"
     pagecolor="#ffffff"
     bordercolor="#000000"
     borderopacity="0.25"
     inkscape:showpageshadow="2"
     inkscape:pageopacity="0.0"
     inkscape:pagecheckerboard="true"
     inkscape:deskcolor="#d1d1d1"
     inkscape:document-units="px"
     inkscape:zoom="7.8035097"
     inkscape:cx="-4.9336775"
     inkscape:cy="14.41659"
     inkscape:window-width="1904"
     inkscape:window-height="971"
     inkscape:window-x="8"
     inkscape:window-y="64"
     inkscape:window-maximized="0"
     inkscape:current-layer="g37" /><defs
     id="defs1" /><g
     inkscape:groupmode="layer"
     id="g37"
     inkscape:label="Stamp"
     style="display:inline"><rect
       style="display:inline;fill:#ffffff;fill-opacity:1;stroke:none;stroke-width:0.132292;stroke-linecap:round;stroke-dasharray:none;stroke-opacity:1"
       id="rect1"
       width="12.7"
       height="12.7"
       x="1.3877788e-17"
       y="5.5511151e-17" /><circle
       style="display:inline;fill:none;stroke:#000000;stroke-width:0.130928;stroke-linecap:round"
       id="path49"
       cx="6.3500018"
       cy="6.3499999"
       r="6.2845359" /><g
       id="g34"
       transform="translate(-0.11612844,0.15483792)"
       style="display:inline"><path
         style="color:#000000;display:inline;fill:#000000;-inkscape-stroke:none"
         d="M 5.3641684,2.6933694 5.2625672,3.800303 4.7270786,7.1211037 4.9025868,7.1406347 5.3338949,3.8198339 5.5545593,2.7129003 Z"
         id="path1"
         sodipodi:nodetypes="csccscc" /><path
         style="display:inline;fill:#000000;fill-opacity:1;stroke:none;stroke-width:0.132292;stroke-dasharray:none;stroke-opacity:1"
         d="m 3.0222077,5.4132605 c 0,0 -0.256796,-0.6552779 0.1805528,-1.0191957 C 3.6401091,4.0301471 4.761111,4.1879552 4.761111,4.1879552 l 1.9910228,0.0047 c 0,0 0.8968764,-0.048447 1.17525,-0.2274485 0.2783735,-0.1790018 0.2348174,-0.3782775 0.3891321,-0.3581392 0.1543145,0.020137 0.1473562,0.0277 0.1473562,0.0277 0,0 -0.03548,0.073652 -0.097855,0.2148589 -0.040383,0.091421 -0.06853,0.159813 -0.2432464,0.2761461 -0.1747186,0.116333 -0.1489779,0.07154 -0.1489779,0.07154 0,0 -0.095285,1.732706 -0.00893,2.5195319 0.08635,0.7868259 0.1665795,1.8083795 0.1665795,1.8083795 l -0.6712529,0.04884 c 0,0 -0.052584,-0.6781297 -0.04018,-1.9452829 0.012404,-1.2671531 -0.065272,-1.8250313 -0.065272,-1.8250313 l -2.7683266,0.075267 c 0,0 -0.3776346,-0.00545 -0.9674548,0.092614 C 3.1545877,5.1792241 3.0222077,5.41326 3.0222077,5.4132605 Z"
         id="path3"
         sodipodi:nodetypes="csccsscssccccscccc" /><path
         style="display:inline;fill:#000000;fill-opacity:1;stroke:none;stroke-width:0.132292;stroke-linecap:round;stroke-dasharray:none;stroke-opacity:1"
         d="m 7.7041741,4.9433785 c 0,0 0.9965652,-0.8331385 1.3814921,-0.9210527 0.2636346,-0.060212 0.2788325,-0.1820969 0.2788325,-0.1820969 0,0 -0.236127,-0.03118 -0.4837975,0.079739 C 8.627521,4.0333543 8.3170043,4.3615155 8.1767248,4.4538678 8.0364456,4.5462204 7.6727375,4.7836236 7.6727375,4.7836236 Z"
         id="path4"
         sodipodi:nodetypes="cscsscc" /><path
         style="display:inline;fill:#000000;fill-opacity:1;stroke:none;stroke-width:0.132292;stroke-linecap:round;stroke-dasharray:none;stroke-opacity:1"
         d="m 4.2089267,2.1781159 c 0,0 0.5658979,-0.2993452 1.1355544,-0.014672 0.569656,0.2846727 0.57786,0.4345534 0.57786,0.4345534 0,0 0.030847,-0.2725426 0.2025206,-0.3808982 0.1716733,-0.1083556 0.2776062,-0.081472 0.2776062,-0.081472 0,0 -0.2120096,0.1574423 -0.2602114,0.3081067 -0.048202,0.1506643 0.017793,0.5922578 0.107355,0.7855526 0.089562,0.1932948 1.0040189,3.2183214 1.0657853,3.4271517 0.061767,0.2088301 0.1610851,0.4865945 0.1610851,0.4865945 L 6.9307103,7.772751 c 0,0 -0.2109354,-0.8155663 -0.39516,-1.1773985 C 6.3513257,6.2335202 6.2135321,6.0704718 5.9660789,5.802833 5.718626,5.5351943 5.6269476,5.5150669 5.6269476,5.5150669 c 0,0 0.1339781,-0.263756 0.3398833,-0.2346309 0.2059053,0.029125 0.2478217,0.1202057 0.2478217,0.1202057 0,0 -0.3187626,-1.5090582 -0.598187,-1.9925575 C 5.337041,2.9245848 5.2543796,2.5834139 4.9998841,2.4248272 4.7453884,2.2662406 4.6756308,2.2021921 4.491384,2.1965796 4.3071374,2.190967 4.2089267,2.1781159 4.2089267,2.1781159 Z"
         id="path15" /><path
         style="display:inline;fill:#000000;fill-opacity:1;stroke:none;stroke-width:0.132292;stroke-linecap:round;stroke-dasharray:none;stroke-opacity:1"
         d="m 6.0613469,7.0326643 c 0,0 0.2355254,-0.049187 0.3112383,0.1603753 C 6.4482984,7.4026015 6.1980769,7.5470934 6.1650264,7.5610293 6.1319764,7.5749649 5.5772827,7.612037 4.9974106,7.4014731 4.4175387,7.1909089 4.1123636,7.3012701 3.9907362,7.3535218 3.8691091,7.4057739 3.4704103,7.5975965 3.3720777,7.9722336 c -0.098333,0.374637 0.079673,0.8255386 0.2614574,1.0558754 0.1817845,0.2303364 0.580207,0.6483186 0.8993398,0.761788 0.3191324,0.1134696 0.7898125,0.1267426 0.7898125,0.1267426 0,0 0.058477,0.1338384 0.1194078,0.1617354 0.3749642,0.171675 0.8207626,0.138766 1.2336055,-0.09408 C 7.0885438,9.7514396 7.141242,9.494721 7.1603951,9.4125192 7.1795483,9.3303174 7.0971821,9.1845312 7.0971821,9.1845312 l 1.0822357,0.2722234 c 0,0 -0.2184935,0.8409314 -1.0400493,1.0482404 -0.8215559,0.207309 -1.3883707,0.176893 -1.8109217,0.0771 C 4.905896,10.482295 4.1187876,10.12786 3.7522815,9.6667195 3.3857756,9.205579 3.2477105,8.5608244 3.2132567,8.3777639 3.1788031,8.1947035 3.2430284,7.6201488 3.3388637,7.5013372 3.4891539,7.3150157 3.9712914,6.8915763 4.2365592,6.8534675 c 0.2652681,-0.038109 0.805048,0.00576 1.0960026,0.1334318 0.2909547,0.1276702 0.4774486,0.1452412 0.6269487,0.2146768 0.1495003,0.069436 0.265601,0.1621412 0.241884,0.047896 C 6.1776773,7.1352276 6.0613469,7.0326643 6.0613469,7.0326643 Z"
         id="path23"
         sodipodi:nodetypes="cssssssscscsccscsssssssc" /><path
         style="display:inline;fill:#000000;fill-opacity:1;stroke:none;stroke-width:0.132292;stroke-linecap:round;stroke-dasharray:none;stroke-opacity:1"
         d="m 8.4612665,4.3051601 c 0,0 0.4441296,0.4142261 0.5158237,0.8904052 0.071694,0.4761788 -0.093147,1.0795215 -0.093147,1.0795215 L 9.175601,6.4388562 c 0,0 0.6384383,-1.004833 0.4882804,-1.5274095 C 9.5137235,4.3888703 9.0369038,3.9466589 9.0369038,3.9466589 Z"
         id="path24" /><path
         style="display:inline;fill:#000000;fill-opacity:1;stroke:none;stroke-width:0.132292;stroke-linecap:round;stroke-dasharray:none;stroke-opacity:1"
         d="m 6.9307103,7.772751 c 0,0 0.9122243,-1.0773003 1.1913744,-1.2118568 C 8.4012349,6.426338 8.6318069,6.4416917 8.7486942,6.5199417 8.8655819,6.5981917 8.892114,6.6909745 8.9028725,6.8245785 8.9136305,6.9581827 9.0167513,7.8393831 8.9983969,7.94363 8.9800427,8.0478772 8.8661444,8.2176748 8.7012865,8.2897542 8.5364283,8.3618336 8.1931893,8.4577051 7.9574743,8.4786556 7.7217595,8.4996053 7.5898466,8.4653815 7.5898466,8.4653815 c 0,0 -0.3892148,-0.3504018 -0.5416467,-0.3937728 C 6.8957679,8.0282377 6.0062451,7.6000749 5.4746119,7.9292901 4.942979,8.2585053 5.0119386,8.633394 5.0075012,8.8442209 5.0030641,9.055048 5.1695904,9.5991446 5.4345544,9.7209903 5.6995183,9.8428356 6.2406543,9.9242106 6.5759245,9.7636358 6.9111947,9.6030607 6.9146478,9.247466 6.9146478,9.247466 c 0,0 -0.7594387,-0.4424717 -0.8948223,-0.3769982 -0.1353839,0.065474 -0.2113524,0.2091502 -0.2113524,0.2091502 0,0 0.178329,-0.060812 0.2310392,-0.00401 0.052711,0.056807 0.087547,0.1514592 -0.089401,0.1832031 C 5.7731634,9.290559 5.519696,9.2899626 5.4704076,9.2389054 5.4211192,9.1878477 5.2076193,8.9444604 5.2182256,8.7047513 5.2288328,8.4650423 5.3190477,8.2338491 5.65387,8.2136426 c 0.3348223,-0.020206 0.8264993,0.185575 1.0186985,0.2983508 0.1921991,0.112776 0.742354,0.4676627 0.742354,0.4676627 0,0 1.2617074,-0.054729 1.6357026,-0.2871944 C 9.4246203,8.4599959 9.7022396,8.2931419 9.7321897,8.1573244 9.7621394,8.0215072 9.7692541,6.7098094 9.683637,6.572448 9.59802,6.4350864 9.292803,6.135472 9.2367933,6.1324176 9.1807837,6.1293643 9.1721638,6.059731 8.9822581,6.0778695 8.7923526,6.0960067 8.2535469,6.3146488 8.1490422,6.3748833 8.044538,6.4351179 7.6455422,6.6352212 7.5955532,6.6972946 7.5455642,6.7593679 7.1834522,7.1129834 7.0764648,7.2610906 6.969477,7.4091977 6.9307103,7.772752 6.9307103,7.772751 Z"
         id="path25"
         sodipodi:nodetypes="csssssscssssscscccsssscssssssssc" /><circle
         style="display:inline;fill:#000000;fill-opacity:1;stroke:none;stroke-width:0.132292;stroke-linecap:round;stroke-dasharray:none;stroke-opacity:1"
         id="circle27"
         cx="8.4089718"
         cy="4.9285684"
         r="0.079374999" /><circle
         style="display:inline;fill:#000000;fill-opacity:1;stroke:none;stroke-width:0.132292;stroke-linecap:round;stroke-dasharray:none;stroke-opacity:1"
         id="circle28"
         cx="8.4089718"
         cy="10.018477"
         r="0.079374999" /><path
         id="path28"
         style="fill:#000000;stroke-width:0.132292;stroke-linecap:round"
         d="m 8.3295965,4.9285683 h 0.15875 l -0.043259,1.4866213 0.043259,3.6032884 h -0.15875 L 8.369972,6.4151896 Z"
         sodipodi:nodetypes="ccccccc" /><circle
         style="display:inline;fill:#000000;fill-opacity:1;stroke:none;stroke-width:0.10881;stroke-linecap:round;stroke-dasharray:none;stroke-opacity:1"
         id="circle31"
         cx="8.4051037"
         cy="5.4777465"
         r="0.13551453" /><circle
         style="display:inline;fill:#000000;fill-opacity:1;stroke:none;stroke-width:0.0830467;stroke-linecap:round;stroke-dasharray:none;stroke-opacity:1"
         id="circle32"
         cx="8.4051037"
         cy="5.7594461"
         r="0.1034283" /><circle
         style="display:inline;fill:#000000;fill-opacity:1;stroke:none;stroke-width:0.079375;stroke-linecap:round;stroke-dasharray:none;stroke-opacity:1"
         id="circle33"
         cx="5.7486272"
         cy="2.7991486"
         transform="rotate(7.4175047)"
         r="0.13551453" /><circle
         style="display:inline;fill:#000000;fill-opacity:1;stroke:none;stroke-width:0.0830467;stroke-linecap:round;stroke-dasharray:none;stroke-opacity:1"
         id="circle34"
         cx="5.7486272"
         cy="3.0808482"
         r="0.1034283"
         transform="rotate(7.4175047)" /></g><g
       id="g58"
       style="display:inline"><g
         id="g32"
         style="display:inline"><path
           style="display:inline;fill:none;fill-opacity:1;stroke:#1a1a1a;stroke-width:0.132292;stroke-linecap:round;stroke-dasharray:none;stroke-opacity:1"
           id="path38"
           sodipodi:type="arc"
           sodipodi:cx="5.7784142"
           sodipodi:cy="6.8737617"
           sodipodi:rx="5.2916665"
           sodipodi:ry="5.2916665"
           sodipodi:start="1.134464"
           sodipodi:end="3.9269908"
           sodipodi:arc-type="arc"
           d="M 8.0147692,11.66964 A 5.2916665,5.2916665 0 0 1 1.4437349,9.9089369 5.2916665,5.2916665 0 0 1 2.0366409,3.1319884"
           sodipodi:open="true"
           transform="rotate(-5)" /><circle
           style="display:inline;fill:#ffffff;fill-opacity:1;stroke:#000000;stroke-width:0.0926042;stroke-linecap:round;stroke-dasharray:none;stroke-opacity:1"
           id="circle38"
           cx="6.7701373"
           cy="-1.3834801"
           transform="rotate(92.417505)"
           r="0.26458332"
           inkscape:transform-center-y="0.46645155"
           inkscape:transform-center-x="5.2478086" /><path
           style="fill:none;stroke:#000000;stroke-width:0.132292;stroke-linecap:round;stroke-dasharray:none"
           d="m 2.3018613,2.9425632 c 0,0 0.074865,-0.5620405 0.4057224,-0.7035427 C 3.0384416,2.0975183 3.4939858,2.024466 3.4939858,2.024466 c 0,0 -0.2652584,0.7560576 -0.5190317,0.8495647 -0.253774,0.093507 -0.6730926,0.068535 -0.6730926,0.068535 z"
           id="path39"
           sodipodi:nodetypes="cscscc" /><path
           style="fill:none;stroke:#000000;stroke-width:0.105833;stroke-linecap:round;stroke-dasharray:none"
           d="m 1.7981446,3.6332733 c 0,0 -0.2216448,-0.5276885 -0.1836102,-0.7634193 0.038035,-0.2357308 0.4014777,-0.4054108 0.4014777,-0.4054108 0,0 -0.031304,0.1991499 -0.00739,0.317767 0.019387,0.096165 0.026628,0.2677129 -0.027637,0.4290834 C 1.9267196,3.372667 1.7981466,3.6332733 1.7981446,3.6332733 Z"
           id="path40"
           sodipodi:nodetypes="cscssc" /><path
           style="fill:none;stroke:#000000;stroke-width:0.105833;stroke-linecap:round;stroke-dasharray:none"
           d="m 1.6738928,3.8773731 c 0,0 0.021813,-0.1385164 0.4347166,-0.3170841 C 2.2892571,3.482165 2.3095539,3.49273 2.4235076,3.487511 2.6012024,3.479371 2.7038029,3.411016 2.7038029,3.411016 c 0,0 -0.1220651,0.3423873 -0.2511722,0.4143185 -0.1291073,0.071928 -0.3526902,0.1351763 -0.478671,0.1363818 -0.1259808,0.0012 -0.3000669,-0.084344 -0.3000669,-0.084343 z"
           id="path41"
           sodipodi:nodetypes="csscssc" /><path
           style="fill:none;stroke:#000000;stroke-width:0.0926042;stroke-linecap:round;stroke-dasharray:none"
           d="m 1.4454154,4.2723496 c 0,0 -0.4332433,-0.2713953 -0.4007863,-0.5357359 C 1.0770861,3.472273 1.1813995,3.271507 1.1813995,3.271507 c 0,0 0.1546565,0.1917216 0.2359915,0.25238 0.081335,0.060657 0.08528,0.2861859 0.049162,0.4100565 -0.036118,0.1238704 -0.021137,0.3384061 -0.021138,0.3384061 z"
           id="path42"
           sodipodi:nodetypes="csccsc" /><path
           style="fill:none;stroke:#000000;stroke-width:0.0926042;stroke-linecap:round;stroke-dasharray:none"
           d="m 1.2932296,4.8028733 c 0,0 0.2915696,-0.4768275 0.509342,-0.4970278 0.2177728,-0.020197 0.3559661,-0.053919 0.3559661,-0.053919 0,0 -0.074077,0.2980506 -0.1639568,0.3810732 -0.089881,0.083022 -0.2065382,0.1427349 -0.3606052,0.1551876 -0.1540667,0.012455 -0.3407461,0.014686 -0.3407461,0.014686 z"
           id="path43"
           sodipodi:nodetypes="cscssc" /><path
           style="fill:none;stroke:#000000;stroke-width:0.079375;stroke-linecap:round;stroke-dasharray:none"
           d="m 1.1936399,5.1791664 c 0,0 -0.00368,-0.3868936 -0.1214923,-0.5669386 -0.064395,-0.098414 -0.11001868,-0.1193273 -0.17512166,-0.1649037 -0.0567934,-0.039759 -0.0901737,-0.078362 -0.0901737,-0.078362 0,0 -0.078152,0.3044933 0.001399,0.4617718 0.0795512,0.1572786 0.38538896,0.3484323 0.38538866,0.3484325 z"
           id="path44"
           sodipodi:nodetypes="csscsc" /><path
           style="fill:none;stroke:#000000;stroke-width:0.079375;stroke-linecap:round;stroke-dasharray:none"
           d="m 1.1369292,5.4675609 c 0,0 0.1490374,-0.2060885 0.2496034,-0.2187978 0.085892,-0.010857 0.1181436,0.022589 0.2509203,0.00907 0.056582,-0.00576 0.1087182,-0.021897 0.1087182,-0.021897 0,0 -0.1179844,0.2514694 -0.2312324,0.2931504 -0.1132479,0.041681 -0.3780095,-0.061524 -0.3780095,-0.061524 z"
           id="path45"
           sodipodi:nodetypes="csscsc" /><circle
           style="display:inline;fill:#ffffff;fill-opacity:1;stroke:#000000;stroke-width:0.0926042;stroke-linecap:round;stroke-dasharray:none;stroke-opacity:1"
           id="circle45"
           cx="7.8257427"
           cy="-0.22687513"
           transform="rotate(82.417505)"
           inkscape:transform-center-y="1.3713599"
           inkscape:transform-center-x="5.0869611"
           r="0.1984375" /><circle
           style="display:inline;fill:#ffffff;fill-opacity:1;stroke:#000000;stroke-width:0.0926042;stroke-linecap:round;stroke-dasharray:none;stroke-opacity:1"
           id="circle46"
           cx="8.2728758"
           cy="0.41597641"
           transform="rotate(77.417505)"
           inkscape:transform-center-y="1.8087906"
           inkscape:transform-center-x="4.9482676"
           r="0.13229166" /><path
           style="color:#000000;display:inline;fill:#000000;-inkscape-stroke:none"
           d="M 2.7910156,2.4456434 C 2.6608425,2.5028944 2.5322694,2.6131559 2.4316406,2.7189155 2.3310118,2.8246751 2.2597656,2.9101563 2.2597656,2.9101563 l 0.083984,0.064453 c 0,0 0.067595,-0.096045 0.1640625,-0.1974311 C 2.60428,2.6757921 2.7318764,2.5543427 2.8339844,2.5094347 3.0675691,2.4067021 3.1669922,2.3105469 3.1669922,2.3105469 c 0,0 -0.1449996,0.033511 -0.3759766,0.1350965 z"
           id="path12"
           sodipodi:nodetypes="ssccsscs" /><path
           style="color:#000000;fill:#000000;-inkscape-stroke:none"
           d="m 1.7598416,3.0351563 c -0.00648,0.1186609 4.259e-4,0.2690515 0.00926,0.3897769 0.00884,0.1207254 0.019291,0.2117856 0.019291,0.2117856 l 0.080078,-0.00781 c 0,0 -0.020189,-0.096627 -0.033996,-0.2186175 -0.0137,-0.1210379 -0.034468,-0.268185 -0.027767,-0.36732 0.009,-0.1331915 0.034336,-0.2204109 0.034336,-0.2204109 -0.035802,0.025083 -0.077837,0.1510522 -0.081199,0.2125959 z"
           id="path13"
           sodipodi:nodetypes="ssccsscs" /><path
           style="color:#000000;fill:#000000;-inkscape-stroke:none"
           d="m 2.127796,3.7342156 c -0.055772,0.018926 -0.1828898,0.044508 -0.2410773,0.059479 -0.1163742,0.029942 -0.2226562,0.044195 -0.2226562,0.044195 l 0.019531,0.078125 c 0,0 0.1133349,-0.030719 0.2246094,-0.065762 0.013035,-0.00411 0.1541776,-0.034451 0.2478962,-0.076432 0.093719,-0.041981 0.1877871,-0.095596 0.2022216,-0.1289953 -0.026766,0.00455 -0.1443344,0.060141 -0.2305247,0.08939 z"
           id="path26"
           sodipodi:nodetypes="ssccsscs" /><path
           style="color:#000000;fill:#000000;-inkscape-stroke:none"
           d="m 1.2241221,3.8188247 c 0.017117,0.062599 0.051776,0.1712824 0.101887,0.2749253 0.05011,0.1036429 0.090006,0.1933594 0.090006,0.1933594 l 0.058594,-0.029297 c 0,0 -0.051594,-0.089178 -0.097723,-0.1933594 C 1.3487356,4.0008755 1.2743742,3.8416495 1.2646981,3.7988281 1.2413848,3.6956565 1.228706,3.6328125 1.228706,3.6328125 c 0,0 -0.025526,0.1094264 -0.00458,0.1860122 z"
           id="path27"
           sodipodi:nodetypes="ssccsscs" /><path
           style="color:#000000;fill:#000000;-inkscape-stroke:none"
           d="M 1.6953125,4.5894542 C 1.62382,4.6299194 1.5446779,4.6686198 1.453125,4.7057216 1.361572,4.7428236 1.2832031,4.7714844 1.2832031,4.7714844 l 0.019531,0.0625 c 0,0 0.082024,-0.036937 0.1757812,-0.074932 0.093757,-0.037995 0.199911,-0.082256 0.2597659,-0.1332259 0.1042395,-0.088766 0.1453577,-0.1893166 0.1453577,-0.1893166 0,0 -0.1137703,0.1107452 -0.1883264,0.1529443 z"
           id="path29"
           sodipodi:nodetypes="ssccsscs" /><path
           style="color:#000000;fill:#000000;-inkscape-stroke:none"
           d="m 0.91779267,4.6529807 c 0,0 -0.0179415,0.058776 0.0191701,0.1648656 0.0371116,0.1060895 0.0698928,0.1550155 0.10428183,0.2016893 0.068778,0.093348 0.1325846,0.1757813 0.1325846,0.1757813 l 0.041016,-0.033203 c 0,0 -0.09591,-0.1287079 -0.1388997,-0.1963913 C 1.039714,4.9086798 1.0101005,4.8762896 0.97588787,4.789405 0.94167527,4.7025204 0.91779317,4.6529803 0.91779267,4.6529807 Z"
           id="path30"
           sodipodi:nodetypes="sssccass" /><path
           style="color:#000000;fill:#000000;-inkscape-stroke:none"
           d="m 1.3847656,5.4144047 c -0.129099,0.036081 -0.2460937,0.027002 -0.2460937,0.027002 l -0.00391,0.052734 c 0,0 0.1299949,0.010447 0.2695313,-0.03929 0.086947,-0.030991 0.1298846,-0.080941 0.1298846,-0.080941 0,0 -0.059207,0.015285 -0.1494122,0.040495 z"
           id="path31"
           sodipodi:nodetypes="sccscs" /></g><g
         id="g57"
         style="display:inline"
         inkscape:transform-center-x="-1.4575491"
         inkscape:transform-center-y="-0.47404093"
         transform="rotate(180,6.3444869,6.3560168)"><path
           style="display:inline;fill:none;fill-opacity:1;stroke:#1a1a1a;stroke-width:0.132292;stroke-linecap:round;stroke-dasharray:none;stroke-opacity:1"
           id="path32"
           sodipodi:type="arc"
           sodipodi:cx="5.7784142"
           sodipodi:cy="6.8737617"
           sodipodi:rx="5.2916665"
           sodipodi:ry="5.2916665"
           sodipodi:start="1.134464"
           sodipodi:end="3.9269908"
           sodipodi:arc-type="arc"
           d="M 8.0147692,11.66964 A 5.2916665,5.2916665 0 0 1 1.4437349,9.9089369 5.2916665,5.2916665 0 0 1 2.0366409,3.1319884"
           sodipodi:open="true"
           transform="rotate(-5)" /><circle
           style="display:inline;fill:#ffffff;fill-opacity:1;stroke:#000000;stroke-width:0.0926042;stroke-linecap:round;stroke-dasharray:none;stroke-opacity:1"
           id="circle35"
           cx="6.7701373"
           cy="-1.3834801"
           transform="rotate(92.417505)"
           r="0.26458332"
           inkscape:transform-center-y="0.46645155"
           inkscape:transform-center-x="5.2478086" /><path
           style="fill:none;stroke:#000000;stroke-width:0.132292;stroke-linecap:round;stroke-dasharray:none"
           d="m 2.3018613,2.9425632 c 0,0 0.074865,-0.5620405 0.4057224,-0.7035427 C 3.0384416,2.0975183 3.4939858,2.024466 3.4939858,2.024466 c 0,0 -0.2652584,0.7560576 -0.5190317,0.8495647 -0.253774,0.093507 -0.6730926,0.068535 -0.6730926,0.068535 z"
           id="path35"
           sodipodi:nodetypes="cscscc" /><path
           style="fill:none;stroke:#000000;stroke-width:0.105833;stroke-linecap:round;stroke-dasharray:none"
           d="m 1.7981446,3.6332733 c 0,0 -0.2216448,-0.5276885 -0.1836102,-0.7634193 0.038035,-0.2357308 0.4014777,-0.4054108 0.4014777,-0.4054108 0,0 -0.031304,0.1991499 -0.00739,0.317767 0.019387,0.096165 0.026628,0.2677129 -0.027637,0.4290834 C 1.9267196,3.372667 1.7981466,3.6332733 1.7981446,3.6332733 Z"
           id="path36"
           sodipodi:nodetypes="cscssc" /><path
           style="fill:none;stroke:#000000;stroke-width:0.105833;stroke-linecap:round;stroke-dasharray:none"
           d="m 1.6738928,3.8773731 c 0,0 0.021813,-0.1385164 0.4347166,-0.3170841 C 2.2892571,3.482165 2.3095539,3.49273 2.4235076,3.487511 2.6012024,3.479371 2.7038029,3.411016 2.7038029,3.411016 c 0,0 -0.1220651,0.3423873 -0.2511722,0.4143185 -0.1291073,0.071928 -0.3526902,0.1351763 -0.478671,0.1363818 -0.1259808,0.0012 -0.3000669,-0.084344 -0.3000669,-0.084343 z"
           id="path37"
           sodipodi:nodetypes="csscssc" /><path
           style="fill:none;stroke:#000000;stroke-width:0.0926042;stroke-linecap:round;stroke-dasharray:none"
           d="m 1.4454154,4.2723496 c 0,0 -0.4332433,-0.2713953 -0.4007863,-0.5357359 C 1.0770861,3.472273 1.1813995,3.271507 1.1813995,3.271507 c 0,0 0.1546565,0.1917216 0.2359915,0.25238 0.081335,0.060657 0.08528,0.2861859 0.049162,0.4100565 -0.036118,0.1238704 -0.021137,0.3384061 -0.021138,0.3384061 z"
           id="path46"
           sodipodi:nodetypes="csccsc" /><path
           style="fill:none;stroke:#000000;stroke-width:0.0926042;stroke-linecap:round;stroke-dasharray:none"
           d="m 1.2932296,4.8028733 c 0,0 0.2915696,-0.4768275 0.509342,-0.4970278 0.2177728,-0.020197 0.3559661,-0.053919 0.3559661,-0.053919 0,0 -0.074077,0.2980506 -0.1639568,0.3810732 -0.089881,0.083022 -0.2065382,0.1427349 -0.3606052,0.1551876 -0.1540667,0.012455 -0.3407461,0.014686 -0.3407461,0.014686 z"
           id="path47"
           sodipodi:nodetypes="cscssc" /><path
           style="fill:none;stroke:#000000;stroke-width:0.079375;stroke-linecap:round;stroke-dasharray:none"
           d="m 1.1936399,5.1791664 c 0,0 -0.00368,-0.3868936 -0.1214923,-0.5669386 -0.064395,-0.098414 -0.11001868,-0.1193273 -0.17512166,-0.1649037 -0.0567934,-0.039759 -0.0901737,-0.078362 -0.0901737,-0.078362 0,0 -0.078152,0.3044933 0.001399,0.4617718 0.0795512,0.1572786 0.38538896,0.3484323 0.38538866,0.3484325 z"
           id="path48"
           sodipodi:nodetypes="csscsc" /><path
           style="fill:none;stroke:#000000;stroke-width:0.079375;stroke-linecap:round;stroke-dasharray:none"
           d="m 1.1369292,5.4675609 c 0,0 0.1490374,-0.2060885 0.2496034,-0.2187978 0.085892,-0.010857 0.1181436,0.022589 0.2509203,0.00907 0.056582,-0.00576 0.1087182,-0.021897 0.1087182,-0.021897 0,0 -0.1179844,0.2514694 -0.2312324,0.2931504 -0.1132479,0.041681 -0.3780095,-0.061524 -0.3780095,-0.061524 z"
           id="path50"
           sodipodi:nodetypes="csscsc" /><circle
           style="display:inline;fill:#ffffff;fill-opacity:1;stroke:#000000;stroke-width:0.0926042;stroke-linecap:round;stroke-dasharray:none;stroke-opacity:1"
           id="circle50"
           cx="7.8257427"
           cy="-0.22687513"
           transform="rotate(82.417505)"
           inkscape:transform-center-y="1.3713599"
           inkscape:transform-center-x="5.0869611"
           r="0.1984375" /><circle
           style="display:inline;fill:#ffffff;fill-opacity:1;stroke:#000000;stroke-width:0.0926042;stroke-linecap:round;stroke-dasharray:none;stroke-opacity:1"
           id="circle51"
           cx="8.2728758"
           cy="0.41597641"
           transform="rotate(77.417505)"
           inkscape:transform-center-y="1.8087906"
           inkscape:transform-center-x="4.9482676"
           r="0.13229166" /><path
           style="color:#000000;display:inline;fill:#000000;-inkscape-stroke:none"
           d="M 2.7910156,2.4456434 C 2.6608425,2.5028944 2.5322694,2.6131559 2.4316406,2.7189155 2.3310118,2.8246751 2.2597656,2.9101563 2.2597656,2.9101563 l 0.083984,0.064453 c 0,0 0.067595,-0.096045 0.1640625,-0.1974311 C 2.60428,2.6757921 2.7318764,2.5543427 2.8339844,2.5094347 3.0675691,2.4067021 3.1669922,2.3105469 3.1669922,2.3105469 c 0,0 -0.1449996,0.033511 -0.3759766,0.1350965 z"
           id="path51"
           sodipodi:nodetypes="ssccsscs" /><path
           style="color:#000000;fill:#000000;-inkscape-stroke:none"
           d="m 1.7598416,3.0351563 c -0.00648,0.1186609 4.259e-4,0.2690515 0.00926,0.3897769 0.00884,0.1207254 0.019291,0.2117856 0.019291,0.2117856 l 0.080078,-0.00781 c 0,0 -0.020189,-0.096627 -0.033996,-0.2186175 -0.0137,-0.1210379 -0.034468,-0.268185 -0.027767,-0.36732 0.009,-0.1331915 0.034336,-0.2204109 0.034336,-0.2204109 -0.035802,0.025083 -0.077837,0.1510522 -0.081199,0.2125959 z"
           id="path52"
           sodipodi:nodetypes="ssccsscs" /><path
           style="color:#000000;fill:#000000;-inkscape-stroke:none"
           d="m 2.127796,3.7342156 c -0.055772,0.018926 -0.1828898,0.044508 -0.2410773,0.059479 -0.1163742,0.029942 -0.2226562,0.044195 -0.2226562,0.044195 l 0.019531,0.078125 c 0,0 0.1133349,-0.030719 0.2246094,-0.065762 0.013035,-0.00411 0.1541776,-0.034451 0.2478962,-0.076432 0.093719,-0.041981 0.1877871,-0.095596 0.2022216,-0.1289953 -0.026766,0.00455 -0.1443344,0.060141 -0.2305247,0.08939 z"
           id="path53"
           sodipodi:nodetypes="ssccsscs" /><path
           style="color:#000000;fill:#000000;-inkscape-stroke:none"
           d="m 1.2241221,3.8188247 c 0.017117,0.062599 0.051776,0.1712824 0.101887,0.2749253 0.05011,0.1036429 0.090006,0.1933594 0.090006,0.1933594 l 0.058594,-0.029297 c 0,0 -0.051594,-0.089178 -0.097723,-0.1933594 C 1.3487356,4.0008755 1.2743742,3.8416495 1.2646981,3.7988281 1.2413848,3.6956565 1.228706,3.6328125 1.228706,3.6328125 c 0,0 -0.025526,0.1094264 -0.00458,0.1860122 z"
           id="path54"
           sodipodi:nodetypes="ssccsscs" /><path
           style="color:#000000;fill:#000000;-inkscape-stroke:none"
           d="M 1.6953125,4.5894542 C 1.62382,4.6299194 1.5446779,4.6686198 1.453125,4.7057216 1.361572,4.7428236 1.2832031,4.7714844 1.2832031,4.7714844 l 0.019531,0.0625 c 0,0 0.082024,-0.036937 0.1757812,-0.074932 0.093757,-0.037995 0.199911,-0.082256 0.2597659,-0.1332259 0.1042395,-0.088766 0.1453577,-0.1893166 0.1453577,-0.1893166 0,0 -0.1137703,0.1107452 -0.1883264,0.1529443 z"
           id="path55"
           sodipodi:nodetypes="ssccsscs" /><path
           style="color:#000000;fill:#000000;-inkscape-stroke:none"
           d="m 0.91779267,4.6529807 c 0,0 -0.0179415,0.058776 0.0191701,0.1648656 0.0371116,0.1060895 0.0698928,0.1550155 0.10428183,0.2016893 0.068778,0.093348 0.1325846,0.1757813 0.1325846,0.1757813 l 0.041016,-0.033203 c 0,0 -0.09591,-0.1287079 -0.1388997,-0.1963913 C 1.039714,4.9086798 1.0101005,4.8762896 0.97588787,4.789405 0.94167527,4.7025204 0.91779317,4.6529803 0.91779267,4.6529807 Z"
           id="path56"
           sodipodi:nodetypes="sssccass" /><path
           style="color:#000000;fill:#000000;-inkscape-stroke:none"
           d="m 1.3847656,5.4144047 c -0.129099,0.036081 -0.2460937,0.027002 -0.2460937,0.027002 l -0.00391,0.052734 c 0,0 0.1299949,0.010447 0.2695313,-0.03929 0.086947,-0.030991 0.1298846,-0.080941 0.1298846,-0.080941 0,0 -0.059207,0.015285 -0.1494122,0.040495 z"
           id="path57"
           sodipodi:nodetypes="sccscs" /></g></g></g><g
     inkscape:groupmode="layer"
     id="layer1"
     inkscape:label="Symbol"
     style="display:inline"><rect
       style="display:inline;fill:#ffffff;fill-opacity:1;stroke:none;stroke-width:0.132292;stroke-linecap:round;stroke-dasharray:none;stroke-opacity:1"
       id="rect99"
       width="12.7"
       height="12.7"
       x="1.3877788e-17"
       y="5.5511151e-17" /><circle
       style="display:inline;fill:none;stroke:#000000;stroke-width:0.130928;stroke-linecap:round"
       id="circle100"
       cx="6.3500018"
       cy="6.3499999"
       r="6.2845359" /><g
       id="g99"
       transform="translate(-0.11612844,0.15483792)"
       style="display:inline"
       sodipodi:insensitive="true"><path
         style="color:#000000;display:inline;fill:#000000;-inkscape-stroke:none"
         d="M 5.3641684,2.6933694 5.2625672,3.800303 4.7270786,7.1211037 4.9025868,7.1406347 5.3338949,3.8198339 5.5545593,2.7129003 Z"
         id="path88"
         sodipodi:nodetypes="csccscc" /><path
         style="display:inline;fill:#000000;fill-opacity:1;stroke:none;stroke-width:0.132292;stroke-dasharray:none;stroke-opacity:1"
         d="m 3.0222077,5.4132605 c 0,0 -0.256796,-0.6552779 0.1805528,-1.0191957 C 3.6401091,4.0301471 4.761111,4.1879552 4.761111,4.1879552 l 1.9910228,0.0047 c 0,0 0.8968764,-0.048447 1.17525,-0.2274485 0.2783735,-0.1790018 0.2348174,-0.3782775 0.3891321,-0.3581392 0.1543145,0.020137 0.1473562,0.0277 0.1473562,0.0277 0,0 -0.03548,0.073652 -0.097855,0.2148589 -0.040383,0.091421 -0.06853,0.159813 -0.2432464,0.2761461 -0.1747186,0.116333 -0.1489779,0.07154 -0.1489779,0.07154 0,0 -0.095285,1.732706 -0.00893,2.5195319 0.08635,0.7868259 0.1665795,1.8083795 0.1665795,1.8083795 l -0.6712529,0.04884 c 0,0 -0.052584,-0.6781297 -0.04018,-1.9452829 0.012404,-1.2671531 -0.065272,-1.8250313 -0.065272,-1.8250313 l -2.7683266,0.075267 c 0,0 -0.3776346,-0.00545 -0.9674548,0.092614 C 3.1545877,5.1792241 3.0222077,5.41326 3.0222077,5.4132605 Z"
         id="path89"
         sodipodi:nodetypes="csccsscssccccscccc" /><path
         style="display:inline;fill:#000000;fill-opacity:1;stroke:none;stroke-width:0.132292;stroke-linecap:round;stroke-dasharray:none;stroke-opacity:1"
         d="m 7.7041741,4.9433785 c 0,0 0.9965652,-0.8331385 1.3814921,-0.9210527 0.2636346,-0.060212 0.2788325,-0.1820969 0.2788325,-0.1820969 0,0 -0.236127,-0.03118 -0.4837975,0.079739 C 8.627521,4.0333543 8.3170043,4.3615155 8.1767248,4.4538678 8.0364456,4.5462204 7.6727375,4.7836236 7.6727375,4.7836236 Z"
         id="path90"
         sodipodi:nodetypes="cscsscc" /><path
         style="display:inline;fill:#000000;fill-opacity:1;stroke:none;stroke-width:0.132292;stroke-linecap:round;stroke-dasharray:none;stroke-opacity:1"
         d="m 4.2089267,2.1781159 c 0,0 0.5658979,-0.2993452 1.1355544,-0.014672 0.569656,0.2846727 0.57786,0.4345534 0.57786,0.4345534 0,0 0.030847,-0.2725426 0.2025206,-0.3808982 0.1716733,-0.1083556 0.2776062,-0.081472 0.2776062,-0.081472 0,0 -0.2120096,0.1574423 -0.2602114,0.3081067 -0.048202,0.1506643 0.017793,0.5922578 0.107355,0.7855526 0.089562,0.1932948 1.0040189,3.2183214 1.0657853,3.4271517 0.061767,0.2088301 0.1610851,0.4865945 0.1610851,0.4865945 L 6.9307103,7.772751 c 0,0 -0.2109354,-0.8155663 -0.39516,-1.1773985 C 6.3513257,6.2335202 6.2135321,6.0704718 5.9660789,5.802833 5.718626,5.5351943 5.6269476,5.5150669 5.6269476,5.5150669 c 0,0 0.1339781,-0.263756 0.3398833,-0.2346309 0.2059053,0.029125 0.2478217,0.1202057 0.2478217,0.1202057 0,0 -0.3187626,-1.5090582 -0.598187,-1.9925575 C 5.337041,2.9245848 5.2543796,2.5834139 4.9998841,2.4248272 4.7453884,2.2662406 4.6756308,2.2021921 4.491384,2.1965796 4.3071374,2.190967 4.2089267,2.1781159 4.2089267,2.1781159 Z"
         id="path91" /><path
         style="display:inline;fill:#000000;fill-opacity:1;stroke:none;stroke-width:0.132292;stroke-linecap:round;stroke-dasharray:none;stroke-opacity:1"
         d="m 6.0613469,7.0326643 c 0,0 0.2355254,-0.049187 0.3112383,0.1603753 C 6.4482984,7.4026015 6.1980769,7.5470934 6.1650264,7.5610293 6.1319764,7.5749649 5.5772827,7.612037 4.9974106,7.4014731 4.4175387,7.1909089 4.1123636,7.3012701 3.9907362,7.3535218 3.8691091,7.4057739 3.4704103,7.5975965 3.3720777,7.9722336 c -0.098333,0.374637 0.079673,0.8255386 0.2614574,1.0558754 0.1817845,0.2303364 0.580207,0.6483186 0.8993398,0.761788 0.3191324,0.1134696 0.7898125,0.1267426 0.7898125,0.1267426 0,0 0.058477,0.1338384 0.1194078,0.1617354 0.3749642,0.171675 0.8207626,0.138766 1.2336055,-0.09408 C 7.0885438,9.7514396 7.141242,9.494721 7.1603951,9.4125192 7.1795483,9.3303174 7.0971821,9.1845312 7.0971821,9.1845312 l 1.0822357,0.2722234 c 0,0 -0.2184935,0.8409314 -1.0400493,1.0482404 -0.8215559,0.207309 -1.3883707,0.176893 -1.8109217,0.0771 C 4.905896,10.482295 4.1187876,10.12786 3.7522815,9.6667195 3.3857756,9.205579 3.2477105,8.5608244 3.2132567,8.3777639 3.1788031,8.1947035 3.2430284,7.6201488 3.3388637,7.5013372 3.4891539,7.3150157 3.9712914,6.8915763 4.2365592,6.8534675 c 0.2652681,-0.038109 0.805048,0.00576 1.0960026,0.1334318 0.2909547,0.1276702 0.4774486,0.1452412 0.6269487,0.2146768 0.1495003,0.069436 0.265601,0.1621412 0.241884,0.047896 C 6.1776773,7.1352276 6.0613469,7.0326643 6.0613469,7.0326643 Z"
         id="path92"
         sodipodi:nodetypes="cssssssscscsccscsssssssc" /><path
         style="display:inline;fill:#000000;fill-opacity:1;stroke:none;stroke-width:0.132292;stroke-linecap:round;stroke-dasharray:none;stroke-opacity:1"
         d="m 8.4612665,4.3051601 c 0,0 0.4441296,0.4142261 0.5158237,0.8904052 0.071694,0.4761788 -0.093147,1.0795215 -0.093147,1.0795215 L 9.175601,6.4388562 c 0,0 0.6384383,-1.004833 0.4882804,-1.5274095 C 9.5137235,4.3888703 9.0369038,3.9466589 9.0369038,3.9466589 Z"
         id="path93" /><path
         style="display:inline;fill:#000000;fill-opacity:1;stroke:none;stroke-width:0.132292;stroke-linecap:round;stroke-dasharray:none;stroke-opacity:1"
         d="m 6.9307103,7.772751 c 0,0 0.9122243,-1.0773003 1.1913744,-1.2118568 C 8.4012349,6.426338 8.6318069,6.4416917 8.7486942,6.5199417 8.8655819,6.5981917 8.892114,6.6909745 8.9028725,6.8245785 8.9136305,6.9581827 9.0167513,7.8393831 8.9983969,7.94363 8.9800427,8.0478772 8.8661444,8.2176748 8.7012865,8.2897542 8.5364283,8.3618336 8.1931893,8.4577051 7.9574743,8.4786556 7.7217595,8.4996053 7.5898466,8.4653815 7.5898466,8.4653815 c 0,0 -0.3892148,-0.3504018 -0.5416467,-0.3937728 C 6.8957679,8.0282377 6.0062451,7.6000749 5.4746119,7.9292901 4.942979,8.2585053 5.0119386,8.633394 5.0075012,8.8442209 5.0030641,9.055048 5.1695904,9.5991446 5.4345544,9.7209903 5.6995183,9.8428356 6.2406543,9.9242106 6.5759245,9.7636358 6.9111947,9.6030607 6.9146478,9.247466 6.9146478,9.247466 c 0,0 -0.7594387,-0.4424717 -0.8948223,-0.3769982 -0.1353839,0.065474 -0.2113524,0.2091502 -0.2113524,0.2091502 0,0 0.178329,-0.060812 0.2310392,-0.00401 0.052711,0.056807 0.087547,0.1514592 -0.089401,0.1832031 C 5.7731634,9.290559 5.519696,9.2899626 5.4704076,9.2389054 5.4211192,9.1878477 5.2076193,8.9444604 5.2182256,8.7047513 5.2288328,8.4650423 5.3190477,8.2338491 5.65387,8.2136426 c 0.3348223,-0.020206 0.8264993,0.185575 1.0186985,0.2983508 0.1921991,0.112776 0.742354,0.4676627 0.742354,0.4676627 0,0 1.2617074,-0.054729 1.6357026,-0.2871944 C 9.4246203,8.4599959 9.7022396,8.2931419 9.7321897,8.1573244 9.7621394,8.0215072 9.7692541,6.7098094 9.683637,6.572448 9.59802,6.4350864 9.292803,6.135472 9.2367933,6.1324176 9.1807837,6.1293643 9.1721638,6.059731 8.9822581,6.0778695 8.7923526,6.0960067 8.2535469,6.3146488 8.1490422,6.3748833 8.044538,6.4351179 7.6455422,6.6352212 7.5955532,6.6972946 7.5455642,6.7593679 7.1834522,7.1129834 7.0764648,7.2610906 6.969477,7.4091977 6.9307103,7.772752 6.9307103,7.772751 Z"
         id="path94"
         sodipodi:nodetypes="csssssscssssscscccsssscssssssssc" /><circle
         style="display:inline;fill:#000000;fill-opacity:1;stroke:none;stroke-width:0.132292;stroke-linecap:round;stroke-dasharray:none;stroke-opacity:1"
         id="circle94"
         cx="8.4089718"
         cy="4.9285684"
         r="0.079374999" /><circle
         style="display:inline;fill:#000000;fill-opacity:1;stroke:none;stroke-width:0.132292;stroke-linecap:round;stroke-dasharray:none;stroke-opacity:1"
         id="circle95"
         cx="8.4089718"
         cy="10.018477"
         r="0.079374999" /><path
         id="path95"
         style="fill:#000000;stroke-width:0.132292;stroke-linecap:round"
         d="m 8.3295965,4.9285683 h 0.15875 l -0.043259,1.4866213 0.043259,3.6032884 h -0.15875 L 8.369972,6.4151896 Z"
         sodipodi:nodetypes="ccccccc" /><circle
         style="display:inline;fill:#000000;fill-opacity:1;stroke:none;stroke-width:0.10881;stroke-linecap:round;stroke-dasharray:none;stroke-opacity:1"
         id="circle96"
         cx="8.4051037"
         cy="5.4777465"
         r="0.13551453" /><circle
         style="display:inline;fill:#000000;fill-opacity:1;stroke:none;stroke-width:0.0830467;stroke-linecap:round;stroke-dasharray:none;stroke-opacity:1"
         id="circle97"
         cx="8.4051037"
         cy="5.7594461"
         r="0.1034283" /><circle
         style="display:inline;fill:#000000;fill-opacity:1;stroke:none;stroke-width:0.10881;stroke-linecap:round;stroke-dasharray:none;stroke-opacity:1"
         id="circle98"
         cx="5.7486272"
         cy="2.7991486"
         r="0.13551453"
         transform="rotate(7.4175047)" /><circle
         style="display:inline;fill:#000000;fill-opacity:1;stroke:none;stroke-width:0.0830467;stroke-linecap:round;stroke-dasharray:none;stroke-opacity:1"
         id="circle99"
         cx="5.7486272"
         cy="3.0808482"
         r="0.1034283"
         transform="rotate(7.4175047)" /></g><g
       id="g88"
       style="display:inline"
       sodipodi:insensitive="true"><g
         id="g72"
         style="display:inline"><path
           style="display:inline;fill:none;fill-opacity:1;stroke:#1a1a1a;stroke-width:0.132292;stroke-linecap:round;stroke-dasharray:none;stroke-opacity:1"
           id="path58"
           sodipodi:type="arc"
           sodipodi:cx="5.7784142"
           sodipodi:cy="6.8737617"
           sodipodi:rx="5.2916665"
           sodipodi:ry="5.2916665"
           sodipodi:start="1.134464"
           sodipodi:end="3.9269908"
           sodipodi:arc-type="arc"
           d="M 8.0147692,11.66964 A 5.2916665,5.2916665 0 0 1 1.4437349,9.9089369 5.2916665,5.2916665 0 0 1 2.0366409,3.1319884"
           sodipodi:open="true"
           transform="rotate(-5)" /><circle
           style="display:inline;fill:#000000;fill-opacity:1;stroke:none;stroke-width:0.0926042;stroke-linecap:round;stroke-dasharray:none;stroke-opacity:1"
           id="circle58"
           cx="6.7701373"
           cy="-1.3834801"
           transform="rotate(92.417505)"
           r="0.26458332"
           inkscape:transform-center-y="0.46645155"
           inkscape:transform-center-x="5.2478086" /><path
           style="fill:#000000;stroke:#000000;stroke-width:0.132292;stroke-linecap:round;stroke-dasharray:none"
           d="m 2.3018613,2.9425632 c 0,0 0.074865,-0.5620405 0.4057224,-0.7035427 C 3.0384416,2.0975183 3.4939858,2.024466 3.4939858,2.024466 c 0,0 -0.2652584,0.7560576 -0.5190317,0.8495647 -0.253774,0.093507 -0.6730926,0.068535 -0.6730926,0.068535 z"
           id="path59"
           sodipodi:nodetypes="cscscc" /><path
           style="fill:#000000;stroke:#000000;stroke-width:0.105833;stroke-linecap:round;stroke-dasharray:none"
           d="m 1.7981446,3.6332733 c 0,0 -0.2216448,-0.5276885 -0.1836102,-0.7634193 0.038035,-0.2357308 0.4014777,-0.4054108 0.4014777,-0.4054108 0,0 -0.031304,0.1991499 -0.00739,0.317767 0.019387,0.096165 0.026628,0.2677129 -0.027637,0.4290834 C 1.9267196,3.372667 1.7981466,3.6332733 1.7981446,3.6332733 Z"
           id="path60"
           sodipodi:nodetypes="cscssc" /><path
           style="fill:#000000;stroke:#000000;stroke-width:0.105833;stroke-linecap:round;stroke-dasharray:none"
           d="m 1.6738928,3.8773731 c 0,0 0.021813,-0.1385164 0.4347166,-0.3170841 C 2.2892571,3.482165 2.3095539,3.49273 2.4235076,3.487511 2.6012024,3.479371 2.7038029,3.411016 2.7038029,3.411016 c 0,0 -0.1220651,0.3423873 -0.2511722,0.4143185 -0.1291073,0.071928 -0.3526902,0.1351763 -0.478671,0.1363818 -0.1259808,0.0012 -0.3000669,-0.084344 -0.3000669,-0.084343 z"
           id="path61"
           sodipodi:nodetypes="csscssc" /><path
           style="fill:#000000;stroke:#000000;stroke-width:0.0926042;stroke-linecap:round;stroke-dasharray:none"
           d="m 1.4454154,4.2723496 c 0,0 -0.4332433,-0.2713953 -0.4007863,-0.5357359 C 1.0770861,3.472273 1.1813995,3.271507 1.1813995,3.271507 c 0,0 0.1546565,0.1917216 0.2359915,0.25238 0.081335,0.060657 0.08528,0.2861859 0.049162,0.4100565 -0.036118,0.1238704 -0.021137,0.3384061 -0.021138,0.3384061 z"
           id="path62"
           sodipodi:nodetypes="csccsc" /><path
           style="fill:#000000;stroke:#000000;stroke-width:0.0926042;stroke-linecap:round;stroke-dasharray:none"
           d="m 1.2932296,4.8028733 c 0,0 0.2915696,-0.4768275 0.509342,-0.4970278 0.2177728,-0.020197 0.3559661,-0.053919 0.3559661,-0.053919 0,0 -0.074077,0.2980506 -0.1639568,0.3810732 -0.089881,0.083022 -0.2065382,0.1427349 -0.3606052,0.1551876 -0.1540667,0.012455 -0.3407461,0.014686 -0.3407461,0.014686 z"
           id="path63"
           sodipodi:nodetypes="cscssc" /><path
           style="fill:#000000;stroke:#000000;stroke-width:0.079375;stroke-linecap:round;stroke-dasharray:none"
           d="m 1.1936399,5.1791664 c 0,0 -0.00368,-0.3868936 -0.1214923,-0.5669386 -0.064395,-0.098414 -0.11001868,-0.1193273 -0.17512166,-0.1649037 -0.0567934,-0.039759 -0.0901737,-0.078362 -0.0901737,-0.078362 0,0 -0.078152,0.3044933 0.001399,0.4617718 0.0795512,0.1572786 0.38538896,0.3484323 0.38538866,0.3484325 z"
           id="path64"
           sodipodi:nodetypes="csscsc" /><path
           style="fill:#000000;stroke:#000000;stroke-width:0.079375;stroke-linecap:round;stroke-dasharray:none"
           d="m 1.1369292,5.4675609 c 0,0 0.1490374,-0.2060885 0.2496034,-0.2187978 0.085892,-0.010857 0.1181436,0.022589 0.2509203,0.00907 0.056582,-0.00576 0.1087182,-0.021897 0.1087182,-0.021897 0,0 -0.1179844,0.2514694 -0.2312324,0.2931504 -0.1132479,0.041681 -0.3780095,-0.061524 -0.3780095,-0.061524 z"
           id="path65"
           sodipodi:nodetypes="csscsc" /><circle
           style="display:inline;fill:#000000;fill-opacity:1;stroke:none;stroke-width:0.0926042;stroke-linecap:round;stroke-dasharray:none;stroke-opacity:1"
           id="circle65"
           cx="7.8257427"
           cy="-0.22687513"
           transform="rotate(82.417505)"
           inkscape:transform-center-y="1.3713599"
           inkscape:transform-center-x="5.0869611"
           r="0.1984375" /><circle
           style="display:inline;fill:#000000;fill-opacity:1;stroke:none;stroke-width:0.0926042;stroke-linecap:round;stroke-dasharray:none;stroke-opacity:1"
           id="circle66"
           cx="8.2728758"
           cy="0.41597641"
           transform="rotate(77.417505)"
           inkscape:transform-center-y="1.8087906"
           inkscape:transform-center-x="4.9482676"
           r="0.13229166" /></g><g
         id="g87"
         style="display:inline"
         inkscape:transform-center-x="-1.4575491"
         inkscape:transform-center-y="-0.47404093"
         transform="rotate(180,6.3444869,6.3560168)"><path
           style="display:inline;fill:none;fill-opacity:1;stroke:#1a1a1a;stroke-width:0.132292;stroke-linecap:round;stroke-dasharray:none;stroke-opacity:1"
           id="path73"
           sodipodi:type="arc"
           sodipodi:cx="5.7784142"
           sodipodi:cy="6.8737617"
           sodipodi:rx="5.2916665"
           sodipodi:ry="5.2916665"
           sodipodi:start="1.134464"
           sodipodi:end="3.9269908"
           sodipodi:arc-type="arc"
           d="M 8.0147692,11.66964 A 5.2916665,5.2916665 0 0 1 1.4437349,9.9089369 5.2916665,5.2916665 0 0 1 2.0366409,3.1319884"
           sodipodi:open="true"
           transform="rotate(-5)" /><circle
           style="display:inline;fill:#000000;fill-opacity:1;stroke:none;stroke-width:0.0926042;stroke-linecap:round;stroke-dasharray:none;stroke-opacity:1"
           id="circle73"
           cx="6.7701373"
           cy="-1.3834801"
           transform="rotate(92.417505)"
           r="0.26458332"
           inkscape:transform-center-y="0.46645155"
           inkscape:transform-center-x="5.2478086" /><path
           style="fill:#000000;stroke:#000000;stroke-width:0.132292;stroke-linecap:round;stroke-dasharray:none"
           d="m 2.3018613,2.9425632 c 0,0 0.074865,-0.5620405 0.4057224,-0.7035427 C 3.0384416,2.0975183 3.4939858,2.024466 3.4939858,2.024466 c 0,0 -0.2652584,0.7560576 -0.5190317,0.8495647 -0.253774,0.093507 -0.6730926,0.068535 -0.6730926,0.068535 z"
           id="path74"
           sodipodi:nodetypes="cscscc" /><path
           style="fill:#000000;stroke:#000000;stroke-width:0.105833;stroke-linecap:round;stroke-dasharray:none"
           d="m 1.7981446,3.6332733 c 0,0 -0.2216448,-0.5276885 -0.1836102,-0.7634193 0.038035,-0.2357308 0.4014777,-0.4054108 0.4014777,-0.4054108 0,0 -0.031304,0.1991499 -0.00739,0.317767 0.019387,0.096165 0.026628,0.2677129 -0.027637,0.4290834 C 1.9267196,3.372667 1.7981466,3.6332733 1.7981446,3.6332733 Z"
           id="path75"
           sodipodi:nodetypes="cscssc" /><path
           style="fill:#000000;stroke:#000000;stroke-width:0.105833;stroke-linecap:round;stroke-dasharray:none"
           d="m 1.6738928,3.8773731 c 0,0 0.021813,-0.1385164 0.4347166,-0.3170841 C 2.2892571,3.482165 2.3095539,3.49273 2.4235076,3.487511 2.6012024,3.479371 2.7038029,3.411016 2.7038029,3.411016 c 0,0 -0.1220651,0.3423873 -0.2511722,0.4143185 -0.1291073,0.071928 -0.3526902,0.1351763 -0.478671,0.1363818 -0.1259808,0.0012 -0.3000669,-0.084344 -0.3000669,-0.084343 z"
           id="path76"
           sodipodi:nodetypes="csscssc" /><path
           style="fill:#000000;stroke:#000000;stroke-width:0.0926042;stroke-linecap:round;stroke-dasharray:none"
           d="m 1.4454154,4.2723496 c 0,0 -0.4332433,-0.2713953 -0.4007863,-0.5357359 C 1.0770861,3.472273 1.1813995,3.271507 1.1813995,3.271507 c 0,0 0.1546565,0.1917216 0.2359915,0.25238 0.081335,0.060657 0.08528,0.2861859 0.049162,0.4100565 -0.036118,0.1238704 -0.021137,0.3384061 -0.021138,0.3384061 z"
           id="path77"
           sodipodi:nodetypes="csccsc" /><path
           style="fill:#000000;stroke:#000000;stroke-width:0.0926042;stroke-linecap:round;stroke-dasharray:none"
           d="m 1.2932296,4.8028733 c 0,0 0.2915696,-0.4768275 0.509342,-0.4970278 0.2177728,-0.020197 0.3559661,-0.053919 0.3559661,-0.053919 0,0 -0.074077,0.2980506 -0.1639568,0.3810732 -0.089881,0.083022 -0.2065382,0.1427349 -0.3606052,0.1551876 -0.1540667,0.012455 -0.3407461,0.014686 -0.3407461,0.014686 z"
           id="path78"
           sodipodi:nodetypes="cscssc" /><path
           style="fill:#000000;stroke:#000000;stroke-width:0.079375;stroke-linecap:round;stroke-dasharray:none"
           d="m 1.1936399,5.1791664 c 0,0 -0.00368,-0.3868936 -0.1214923,-0.5669386 -0.064395,-0.098414 -0.11001868,-0.1193273 -0.17512166,-0.1649037 -0.0567934,-0.039759 -0.0901737,-0.078362 -0.0901737,-0.078362 0,0 -0.078152,0.3044933 0.001399,0.4617718 0.0795512,0.1572786 0.38538896,0.3484323 0.38538866,0.3484325 z"
           id="path79"
           sodipodi:nodetypes="csscsc" /><path
           style="fill:#000000;stroke:#000000;stroke-width:0.079375;stroke-linecap:round;stroke-dasharray:none"
           d="m 1.1369292,5.4675609 c 0,0 0.1490374,-0.2060885 0.2496034,-0.2187978 0.085892,-0.010857 0.1181436,0.022589 0.2509203,0.00907 0.056582,-0.00576 0.1087182,-0.021897 0.1087182,-0.021897 0,0 -0.1179844,0.2514694 -0.2312324,0.2931504 -0.1132479,0.041681 -0.3780095,-0.061524 -0.3780095,-0.061524 z"
           id="path80"
           sodipodi:nodetypes="csscsc" /><circle
           style="display:inline;fill:#000000;fill-opacity:1;stroke:none;stroke-width:0.0926042;stroke-linecap:round;stroke-dasharray:none;stroke-opacity:1"
           id="circle80"
           cx="7.8257427"
           cy="-0.22687513"
           transform="rotate(82.417505)"
           inkscape:transform-center-y="1.3713599"
           inkscape:transform-center-x="5.0869611"
           r="0.1984375" /><circle
           style="display:inline;fill:#000000;fill-opacity:1;stroke:none;stroke-width:0.0926042;stroke-linecap:round;stroke-dasharray:none;stroke-opacity:1"
           id="circle81"
           cx="8.2728758"
           cy="0.41597641"
           transform="rotate(77.417505)"
           inkscape:transform-center-y="1.8087906"
           inkscape:transform-center-x="4.9482676"
           r="0.13229166" /></g></g></g></svg>
